<?xml version="1.0" standalone="no"?>
<!DOCTYPE svg PUBLIC "-//W3C//DTD SVG 20010904//EN"
 "http://www.w3.org/TR/2001/REC-SVG-20010904/DTD/svg10.dtd">
<svg version="1.0" xmlns="http://www.w3.org/2000/svg"
 width="1080.000000pt" height="1350.000000pt" viewBox="0 0 1080.000000 1350.000000"
 preserveAspectRatio="xMidYMid meet">

<g transform="translate(0.000000,1350.000000) scale(0.100000,-0.100000)"
fill="#000000" stroke="none">
<path d="M1950 12614 c-212 -25 -272 -45 -328 -109 -60 -67 -75 -116 -78 -255
-26 -1001 -29 -1546 -29 -4490 0 -2989 10 -6020 20 -6303 6 -153 13 -176 69
-225 42 -36 78 -48 200 -61 49 -6 92 -14 96 -18 4 -5 12 -27 18 -49 21 -74 56
-81 86 -17 9 19 19 33 23 30 3 -4 -3 -24 -14 -46 -17 -34 -18 -41 -5 -46 8 -3
21 0 29 7 11 9 19 9 33 1 18 -12 56 -7 77 9 8 7 16 3 25 -11 9 -14 23 -21 44
-21 27 0 37 7 63 48 17 27 31 56 31 65 0 9 5 19 11 23 8 5 10 -1 7 -17 -10
-45 -13 -53 -26 -67 -6 -7 -12 -18 -12 -25 0 -15 45 47 60 83 10 24 19 29 68
35 52 7 3456 0 4392 -9 1088 -10 2387 -8 2450 4 114 20 183 74 236 180 36 74
36 75 43 240 6 175 -8 790 -18 790 -4 0 -5 -77 -3 -171 4 -141 2 -171 -9 -167
-10 4 -13 20 -11 62 3 37 -1 62 -10 73 -9 11 -10 17 -2 20 8 3 11 29 8 81 -2
42 -5 158 -8 257 -3 99 -10 195 -17 213 -7 21 -8 41 -2 60 21 61 11 223 -10
170 -4 -9 -6 -10 -6 -1 -1 6 6 19 15 27 12 12 14 29 10 73 -3 32 -6 76 -6 98
0 22 -1 74 -2 115 0 41 -1 94 -1 117 0 39 -6 48 -29 44 -5 0 -8 7 -8 16 0 13
3 14 12 5 22 -22 26 -12 27 77 1 68 -2 93 -14 104 -8 9 -15 22 -15 29 0 10 3
9 10 -2 8 -12 10 -11 10 8 0 12 -5 22 -11 22 -8 0 -7 6 2 17 11 13 11 17 2 20
-7 3 -13 9 -13 14 0 6 5 7 10 4 16 -10 12 12 -5 29 -8 8 -15 21 -15 28 0 10 3
9 10 -2 9 -13 10 -13 11 0 5 73 4 112 -7 153 -7 26 -9 45 -4 42 4 -3 10 11 12
30 2 19 2 35 -2 35 -3 0 -5 36 -5 80 1 43 -3 74 -7 67 -5 -8 -9 -5 -14 8 -4
11 -16 30 -27 42 -19 22 -19 22 2 16 11 -3 21 -12 21 -19 0 -8 5 -14 10 -14
12 0 13 13 1 26 -5 5 -6 31 -1 59 5 34 4 55 -4 64 -8 11 -8 15 1 18 15 5 17
30 4 35 -5 2 -12 34 -15 72 -3 38 -10 84 -17 103 -6 18 -9 39 -6 46 3 7 7 4
12 -8 17 -51 28 -69 32 -57 3 7 -1 20 -8 28 -10 13 -10 17 1 24 12 7 11 10 -3
16 -9 3 -17 10 -17 15 0 4 7 6 15 3 12 -5 14 5 12 58 -1 34 -6 66 -12 71 -6 4
-5 10 4 16 16 10 6 49 -18 69 -15 12 -15 13 1 8 9 -3 19 2 22 10 8 22 8 24 -8
24 -8 0 -17 7 -20 15 -4 11 0 15 12 13 15 -3 17 8 19 95 2 62 -1 96 -7 92 -6
-3 -10 -1 -10 4 0 6 5 11 10 11 14 0 12 64 -2 78 -9 9 -9 12 0 12 10 0 10 5 1
21 -9 17 -8 20 3 13 8 -5 6 2 -5 19 -14 22 -15 28 -4 32 8 4 12 18 9 40 -2 19
-8 32 -13 29 -12 -7 -11 8 1 40 12 33 3 56 -21 56 -13 0 -17 -5 -12 -17 6 -16
5 -16 -11 -4 -16 14 -15 16 19 33 20 11 33 23 29 30 -10 16 -13 108 -3 108 5
0 9 7 9 16 0 8 -4 12 -10 9 -6 -3 -7 1 -4 9 3 9 9 16 13 16 3 0 4 29 3 65 -3
60 -9 70 -34 66 -12 -2 -10 27 2 34 6 3 10 1 10 -4 0 -6 4 -11 8 -11 5 0 8 16
8 35 l-1 35 -18 -23 c-17 -20 -18 -20 -11 -2 7 18 10 40 17 115 1 14 -1 30 -6
37 -5 7 -3 24 6 42 10 19 11 31 5 33 -7 3 -7 12 2 27 9 18 9 25 0 31 -8 5 -10
18 -5 39 4 17 3 65 0 107 -6 60 -10 74 -22 70 -21 -9 -6 33 21 56 12 9 15 17
9 18 -7 0 -13 -6 -13 -12 -1 -8 -7 -5 -15 6 -12 16 -12 23 1 48 9 17 13 32 11
35 -7 6 -77 -67 -77 -81 0 -6 5 -5 12 2 14 14 28 16 28 3 0 -5 -13 -12 -30
-16 -22 -5 -35 -1 -52 15 l-23 21 -17 -22 c-10 -11 -18 -17 -18 -11 0 6 8 18
17 28 18 18 21 67 8 118 -5 19 -4 27 3 23 5 -4 13 0 16 9 3 8 2 12 -4 9 -6 -3
-10 1 -10 10 0 9 5 13 10 10 7 -4 9 2 5 17 -4 16 -1 29 9 37 9 7 13 17 10 22
-3 5 -1 9 5 9 5 0 12 -6 14 -12 3 -7 11 2 17 20 9 24 17 32 30 29 10 -2 22 4
30 16 15 24 16 100 1 105 -15 5 -14 22 3 55 8 15 11 27 5 27 -5 0 -9 -5 -9
-12 0 -6 -3 -8 -6 -5 -4 4 -1 13 6 21 6 9 13 30 14 47 l2 32 -19 -24 c-21 -25
-20 -22 2 24 8 15 18 27 22 27 4 0 6 10 4 21 -5 27 -15 38 -15 17 0 -9 -7 -19
-16 -22 -30 -12 -27 3 7 35 29 27 33 36 30 72 -2 23 -7 45 -13 48 -7 4 -6 8 1
10 17 6 27 218 13 259 -7 19 -7 30 -1 30 5 0 8 26 6 60 -2 33 -1 60 2 60 8 0
8 57 0 65 -4 3 -3 23 2 43 5 20 9 79 9 130 0 54 4 92 10 92 6 0 10 19 10 43 0
31 -3 38 -10 27 -8 -12 -10 -10 -10 8 0 13 4 20 10 17 7 -4 10 77 9 237 0 134
-3 237 -6 231 -15 -39 -22 2 -22 122 1 118 3 135 17 135 15 1 15 2 1 10 -13 7
-15 30 -14 132 1 68 3 132 5 143 2 17 3 17 10 -5 l8 -25 1 28 c1 15 -3 27 -9
27 -5 0 -10 5 -10 11 0 5 4 8 9 5 13 -8 17 307 19 1404 1 520 5 1085 8 1255 7
344 1 421 -43 514 -33 68 -100 142 -162 177 -25 14 -86 34 -136 44 -85 17
-190 19 -1775 25 -927 4 -1818 9 -1980 11 -389 7 -3385 13 -3430 8z m210 -49
c11 -13 10 -14 -4 -9 -9 3 -16 10 -16 15 0 13 6 11 20 -6z m-270 -2166 c0 -6
-4 -7 -10 -4 -5 3 -10 11 -10 16 0 6 5 7 10 4 6 -3 10 -11 10 -16z m6593 -54
c-3 -9 -8 -14 -10 -11 -3 3 -2 9 2 15 9 16 15 13 8 -4z m-6603 -30 c0 -9 -6
-12 -15 -9 -8 4 -12 10 -9 15 8 14 24 10 24 -6z m395 5 c3 -5 1 -10 -4 -10 -6
0 -11 5 -11 10 0 6 2 10 4 10 3 0 8 -4 11 -10z m3528 -120 c3 -11 1 -23 -4
-26 -5 -3 -9 6 -9 20 0 31 6 34 13 6z m-3920 -90 c4 -15 0 -20 -14 -20 -12 0
-19 7 -19 20 0 11 6 20 14 20 7 0 16 -9 19 -20z m7 -77 c0 -7 -4 -13 -10 -13
-5 0 -10 5 -10 11 0 8 -5 8 -15 -1 -13 -11 -15 -8 -15 13 0 14 6 27 13 30 13
4 36 -21 37 -40z m30 17 c0 -5 -2 -10 -4 -10 -3 0 -8 5 -11 10 -3 6 -1 10 4
10 6 0 11 -4 11 -10z m-29 -60 c3 -8 -1 -21 -10 -27 -13 -11 -14 -14 -2 -22 9
-6 12 -19 8 -39 -5 -22 -1 -34 14 -48 14 -13 19 -26 15 -45 -3 -18 2 -33 20
-52 28 -31 24 -34 -11 -11 -25 16 -34 7 -14 -13 14 -14 7 -59 -8 -56 -8 2 -10
-9 -6 -34 5 -27 3 -34 -6 -29 -8 6 -10 1 -5 -18 4 -16 2 -26 -5 -26 -6 0 -8
-6 -5 -14 3 -8 1 -17 -5 -20 -7 -5 -7 -15 0 -33 6 -17 6 -30 -1 -38 -8 -9 -6
-14 5 -19 8 -3 15 -13 15 -23 0 -10 10 -29 21 -43 23 -27 23 -27 2 43 -6 21
-5 21 15 -3 25 -29 28 -21 7 20 -8 16 -12 36 -8 45 3 10 0 21 -7 25 -7 4 -11
13 -8 20 3 9 8 9 20 -3 21 -21 31 -10 14 15 -8 11 -11 28 -8 40 2 11 0 23 -5
27 -6 3 -14 17 -18 31 l-8 25 21 -25 c12 -14 21 -20 22 -14 0 5 -5 15 -12 22
-6 6 -9 15 -5 19 4 3 10 4 13 0 11 -11 23 -82 18 -104 -3 -11 -1 -30 5 -42 9
-15 7 -28 -6 -56 -17 -35 -17 -38 0 -50 13 -9 16 -20 11 -39 -4 -16 -2 -26 5
-26 6 0 8 -7 5 -15 -9 -23 -24 -18 -24 8 0 18 -2 19 -10 7 -5 -8 -10 -10 -10
-3 0 6 -8 10 -17 9 -10 -2 -22 2 -26 8 -5 6 -5 0 -1 -14 4 -14 11 -26 15 -28
5 -2 9 -10 9 -18 0 -9 -4 -12 -10 -9 -5 3 -10 -1 -10 -10 0 -9 -4 -13 -10 -10
-6 4 -10 -7 -10 -25 0 -22 -4 -31 -13 -27 -6 2 -17 -1 -23 -7 -16 -18 1 -55
31 -66 16 -6 25 -17 25 -30 0 -12 -4 -18 -10 -15 -5 3 -10 0 -10 -8 0 -8 -7
-18 -16 -21 -12 -4 -15 -2 -11 9 4 8 2 17 -2 20 -5 2 -11 -4 -14 -15 -3 -11
-9 -20 -15 -20 -11 0 -3 50 11 68 8 10 7 16 -1 21 -14 9 -15 34 -7 376 4 160
7 320 8 358 1 47 5 66 13 63 7 -3 15 2 18 11 5 12 1 14 -14 10 -22 -6 -23 -5
-14 18 8 19 47 16 55 -5z m46 -52 c-3 -8 -6 -5 -6 6 -1 11 2 17 5 13 3 -3 4
-12 1 -19z m-30 -70 c-3 -8 -6 -5 -6 6 -1 11 2 17 5 13 3 -3 4 -12 1 -19z
m227 -14 c3 -8 2 -12 -4 -9 -6 3 -10 10 -10 16 0 14 7 11 14 -7z m-100 -110
c3 -8 2 -12 -4 -9 -6 3 -10 10 -10 16 0 14 7 11 14 -7z m5816 -3 c0 -6 -4 -13
-10 -16 -5 -3 -10 1 -10 9 0 9 5 16 10 16 6 0 10 -4 10 -9z m-1457 -21 c-5
-19 -23 -39 -23 -25 0 9 20 45 24 45 2 0 2 -9 -1 -20z m-4439 -32 c-4 -6 -10
-5 -15 3 -14 22 -10 33 6 19 8 -7 12 -17 9 -22z m1183 10 c-3 -8 -6 -5 -6 6
-1 11 2 17 5 13 3 -3 4 -12 1 -19z m1111 -5 c-2 -9 -11 -17 -21 -19 -18 -2
-18 -2 -1 17 21 23 26 24 22 2z m-2248 -44 c0 -5 -6 -9 -13 -9 -7 0 -13 9 -13
19 0 15 3 17 13 9 7 -6 13 -14 13 -19z m146 4 c-7 -7 -26 7 -26 19 0 6 6 6 15
-2 9 -7 13 -15 11 -17z m4215 4 c-10 -9 -11 -8 -5 6 3 10 9 15 12 12 3 -3 0
-11 -7 -18z m1489 3 c0 -5 -5 -10 -11 -10 -5 0 -7 5 -4 10 3 6 8 10 11 10 2 0
4 -4 4 -10z m-3639 -43 c-10 -9 -11 -8 -5 6 3 10 9 15 12 12 3 -3 0 -11 -7
-18z m2125 -12 c-6 -19 -14 -35 -18 -35 -11 0 -10 7 7 40 21 40 24 38 11 -5z
m1953 -19 c-9 -8 -10 -7 -5 7 3 10 7 24 7 30 1 7 3 4 6 -7 3 -10 -1 -23 -8
-30z m-4032 -53 c-2 -16 -4 -3 -4 27 0 30 2 43 4 28 2 -16 2 -40 0 -55z
m-2331 40 c-10 -10 -19 5 -10 18 6 11 8 11 12 0 2 -7 1 -15 -2 -18z m3771 5
c-3 -8 -6 -5 -6 6 -1 11 2 17 5 13 3 -3 4 -12 1 -19z m1847 6 c3 -8 2 -12 -4
-9 -6 3 -10 10 -10 16 0 14 7 11 14 -7z m-4344 -84 c0 -13 -1 -13 -10 0 -5 8
-10 22 -10 30 0 13 1 13 10 0 5 -8 10 -22 10 -30z m730 31 c0 -6 -4 -13 -10
-16 -5 -3 -10 1 -10 9 0 9 5 16 10 16 6 0 10 -4 10 -9z m-2020 -38 c0 -13 -3
-13 -15 -3 -8 7 -15 19 -15 27 0 13 3 13 15 3 8 -7 15 -19 15 -27z m1344 -12
c-4 -23 -9 -40 -11 -37 -3 3 -2 23 2 46 4 23 9 39 11 37 3 -2 2 -23 -2 -46z
m176 39 c0 -5 -2 -10 -4 -10 -3 0 -8 5 -11 10 -3 6 -1 10 4 10 6 0 11 -4 11
-10z m-353 -57 c-3 -10 -5 -2 -5 17 0 19 2 27 5 18 2 -10 2 -26 0 -35z m653
37 c0 -5 -4 -10 -10 -10 -5 0 -10 5 -10 10 0 6 5 10 10 10 6 0 10 -4 10 -10z
m527 -32 c-3 -8 -6 -5 -6 6 -1 11 2 17 5 13 3 -3 4 -12 1 -19z m-2347 -8 c0
-5 -4 -10 -10 -10 -5 0 -10 5 -10 10 0 6 5 10 10 10 6 0 10 -4 10 -10z m90
-25 c0 -7 8 -19 18 -24 13 -8 14 -11 2 -11 -9 -1 -6 -5 8 -10 26 -11 30 -32 5
-23 -29 10 -43 24 -43 44 0 11 -5 19 -11 19 -5 0 -7 5 -4 10 9 15 25 12 25 -5z
m1747 -7 c-3 -8 -6 -5 -6 6 -1 11 2 17 5 13 3 -3 4 -12 1 -19z m515 -13 c3
-14 1 -25 -3 -25 -5 0 -9 11 -9 25 0 14 2 25 4 25 2 0 6 -11 8 -25z m-2127 -5
c3 -5 1 -10 -4 -10 -6 0 -11 5 -11 10 0 6 2 10 4 10 3 0 8 -4 11 -10z m942
-72 c-3 -8 -6 -5 -6 6 -1 11 2 17 5 13 3 -3 4 -12 1 -19z m-950 -40 c-2 -13
-4 -5 -4 17 -1 22 1 32 4 23 2 -10 2 -28 0 -40z m5533 31 c0 -11 -4 -17 -10
-14 -5 3 -10 13 -10 21 0 8 5 14 10 14 6 0 10 -9 10 -21z m-1838 -11 c-7 -7
-12 -8 -12 -2 0 14 12 26 19 19 2 -3 -1 -11 -7 -17z m-3853 -56 c14 -11 13
-11 -6 -2 -13 6 -23 18 -22 28 0 14 2 14 6 2 4 -8 13 -21 22 -28z m-54 -12
c-5 -24 -4 -29 9 -24 10 4 17 -2 22 -20 4 -18 10 -24 18 -17 8 6 11 0 13 -23
2 -44 -23 -43 -32 1 -5 29 -8 32 -25 23 -16 -9 -20 -7 -25 13 -6 22 9 77 21
77 3 0 3 -13 -1 -30z m101 10 c0 -24 -20 -21 -24 3 -2 9 3 17 10 17 8 0 14 -9
14 -20z m31 -12 c-3 -8 -6 -5 -6 6 -1 11 2 17 5 13 3 -3 4 -12 1 -19z m93 -45
c0 -13 -4 -23 -10 -23 -5 0 -10 17 -10 38 0 27 3 33 10 22 5 -8 10 -25 10 -37z
m17 15 c-3 -7 -5 -2 -5 12 0 14 2 19 5 13 2 -7 2 -19 0 -25z m-142 2 c3 -5 1
-10 -4 -10 -6 0 -11 5 -11 10 0 6 2 10 4 10 3 0 8 -4 11 -10z m-145 -31 c0 -6
-4 -7 -10 -4 -5 3 -10 11 -10 16 0 6 5 7 10 4 6 -3 10 -11 10 -16z m5817 -71
c-3 -7 -5 -2 -5 12 0 14 2 19 5 13 2 -7 2 -19 0 -25z m-5350 -20 c-3 -8 -6 -5
-6 6 -1 11 2 17 5 13 3 -3 4 -12 1 -19z m-193 -12 c-6 -15 -24 -23 -24 -11 0
8 24 34 28 30 1 -1 0 -10 -4 -19z m-219 -48 c1 -2 5 -12 9 -24 5 -17 2 -20
-21 -19 -29 1 -83 31 -83 46 0 8 88 5 95 -3z m1332 -30 c-3 -8 -6 -5 -6 6 -1
11 2 17 5 13 3 -3 4 -12 1 -19z m-1402 -25 c1 -11 7 -28 14 -37 11 -13 11 -16
1 -16 -8 0 -22 -7 -32 -17 -17 -15 -18 -14 -18 34 0 27 3 53 7 57 12 12 28 0
28 -21z m431 -1 c-9 -9 -37 8 -31 18 5 8 11 7 21 -1 8 -6 12 -14 10 -17z
m-339 -52 c1 -19 -1 -27 -3 -17 -10 32 -27 19 -20 -15 6 -29 5 -30 -7 -14 -10
14 -16 16 -21 7 -5 -7 0 -19 10 -27 13 -11 15 -17 7 -20 -7 -3 -10 -16 -7 -33
7 -33 -19 -62 -38 -43 -8 8 -9 12 -1 12 15 0 25 29 18 52 -9 27 -26 11 -19
-18 3 -13 2 -24 -2 -24 -5 0 -10 -26 -10 -58 -2 -50 -1 -53 7 -24 11 36 27 41
50 14 15 -17 15 -47 0 -38 -4 3 -7 -11 -7 -31 0 -31 1 -33 13 -17 7 10 13 13
13 7 0 -13 -46 -63 -53 -57 -2 3 -7 -2 -10 -10 -5 -13 -2 -13 20 -5 30 11 45
3 23 -12 -12 -9 -12 -10 3 -5 15 5 17 2 12 -15 -4 -13 -1 -27 9 -38 16 -17 15
-19 -4 -24 -17 -4 -20 0 -20 24 0 16 -5 29 -11 29 -11 0 -5 -29 13 -67 9 -18
14 -20 25 -12 10 9 13 7 13 -10 0 -11 5 -21 11 -21 6 0 9 7 5 15 -3 9 0 15 9
15 8 0 15 -3 15 -7 -1 -14 -27 -43 -39 -43 -6 0 -11 -10 -12 -22 -1 -22 -1
-22 -9 2 -7 21 -8 22 -10 5 l-1 -20 -9 20 c-7 17 -9 16 -9 -9 -1 -16 2 -26 6
-23 3 4 12 2 19 -4 11 -9 16 -6 22 12 5 13 11 18 16 11 3 -6 2 -13 -4 -17 -5
-3 -10 -15 -10 -27 0 -14 -5 -18 -16 -14 -9 3 -24 6 -35 6 -13 0 -17 5 -13 18
5 16 5 16 -9 -1 -9 -10 -22 -15 -33 -12 -11 4 -2 -3 19 -15 25 -14 37 -28 37
-42 0 -20 1 -21 20 -3 19 18 20 17 20 -2 0 -30 -27 -36 -51 -12 -28 28 -37 16
-10 -12 30 -32 26 -40 -16 -36 l-38 2 -1 280 c-1 348 2 385 27 380 14 -3 19 2
19 16 0 11 5 29 10 39 7 13 7 21 0 25 -21 13 -9 22 28 21 35 -2 37 -4 39 -36z
m30 18 c-3 -8 -6 -5 -6 6 -1 11 2 17 5 13 3 -3 4 -12 1 -19z m250 -24 c-9 -10
-27 15 -21 31 7 17 8 16 16 -5 5 -13 7 -24 5 -26z m-47 26 c0 -5 -2 -10 -4
-10 -3 0 -8 5 -11 10 -3 6 -1 10 4 10 6 0 11 -4 11 -10z m151 -55 c12 8 11 -2
-3 -28 -11 -22 -12 -22 -19 5 -4 15 -4 38 -1 50 7 22 7 21 10 -5 2 -15 8 -25
13 -22z m166 -7 c-3 -8 -6 -5 -6 6 -1 11 2 17 5 13 3 -3 4 -12 1 -19z m-312
-37 c-3 -29 -16 -61 -26 -61 -6 0 -7 -4 -4 -10 3 -5 1 -10 -4 -10 -14 0 -14
11 -1 46 7 18 7 31 1 37 -6 6 -6 16 2 28 10 16 12 16 22 2 6 -8 11 -23 10 -32z
m-54 12 c-8 -15 -10 -15 -11 -2 0 17 10 32 18 25 2 -3 -1 -13 -7 -23z m109 11
c0 -8 -4 -12 -10 -9 -5 3 -10 10 -10 16 0 5 5 9 10 9 6 0 10 -7 10 -16z m5467
-6 c-3 -8 -6 -5 -6 6 -1 11 2 17 5 13 3 -3 4 -12 1 -19z m-5727 -2 c0 -11 -19
-15 -25 -6 -3 5 1 10 9 10 9 0 16 -2 16 -4z m-10 -71 c0 -3 -9 -1 -20 5 -11 6
-20 17 -20 25 0 11 5 10 20 -5 11 -11 20 -22 20 -25z m78 -23 c-2 -11 -13 -17
-30 -17 -24 -1 -27 3 -25 30 1 16 9 35 17 42 12 9 17 7 28 -13 7 -14 12 -33
10 -42z m232 48 c9 -16 8 -20 -5 -20 -8 0 -15 2 -15 4 0 2 -3 11 -6 20 -9 23
13 20 26 -4z m176 -17 c-10 -10 -19 5 -10 18 6 11 8 11 12 0 2 -7 1 -15 -2
-18z m1674 17 c0 -5 -2 -10 -4 -10 -3 0 -8 5 -11 10 -3 6 -1 10 4 10 6 0 11
-4 11 -10z m-1800 -38 c0 -7 -4 -10 -10 -7 -5 3 -10 16 -10 28 0 18 2 19 10 7
5 -8 10 -21 10 -28z m4581 11 c-12 -20 -14 -14 -5 12 4 9 9 14 11 11 3 -2 0
-13 -6 -23z m-4671 -3 c0 -5 -5 -10 -11 -10 -5 0 -7 5 -4 10 3 6 8 10 11 10 2
0 4 -4 4 -10z m-280 -32 c0 -5 -4 -6 -10 -3 -5 3 -10 0 -10 -8 0 -7 -7 -14
-15 -14 -18 0 -20 23 -2 41 12 14 37 4 37 -16z m194 -37 c-2 -2 -10 -1 -19 2
-9 4 -15 19 -15 39 l0 33 19 -35 c10 -19 17 -37 15 -39z m96 28 c0 -5 -4 -9
-10 -9 -5 0 -10 7 -10 16 0 8 5 12 10 9 6 -3 10 -10 10 -16z m76 -26 c-3 -4
-6 -1 -6 5 0 17 -16 15 -34 -4 -15 -14 -16 -14 -16 0 0 9 7 16 15 16 8 0 15 8
15 17 0 14 3 13 16 -5 9 -13 13 -26 10 -29z m-306 -9 c0 -17 -17 -27 -37 -20
-11 5 -13 10 -4 20 6 7 8 15 5 19 -3 3 3 3 15 0 12 -3 21 -11 21 -19z m384
-13 c-9 -10 -26 18 -18 30 5 9 9 8 14 -7 4 -10 6 -21 4 -23z m3906 4 c0 -8 -4
-15 -10 -15 -5 0 -7 7 -4 15 4 8 8 15 10 15 2 0 4 -7 4 -15z m-4176 -39 c-5
-13 -2 -17 7 -14 9 4 14 -3 15 -19 2 -17 -3 -23 -15 -21 -12 2 -17 16 -19 53
-2 36 0 46 8 35 5 -8 7 -24 4 -34z m825 1 c0 -21 -1 -21 -9 -2 -12 28 -12 37
0 30 6 -3 10 -16 9 -28z m-546 3 c18 -22 21 -30 10 -30 -11 1 -46 50 -36 50 5
0 16 -9 26 -20z m-123 -14 c0 -3 -4 -8 -10 -11 -5 -3 -10 -1 -10 4 0 6 5 11
10 11 6 0 10 -2 10 -4z m-80 -30 c0 -13 -7 -26 -15 -30 -16 -6 -18 -2 -9 32 8
29 24 28 24 -2z m4091 -23 c-10 -17 -10 -16 -11 3 0 23 13 41 18 25 2 -6 -1
-18 -7 -28z m-4297 -46 c-6 -10 -10 -27 -7 -38 3 -10 0 -19 -6 -19 -6 0 -14
12 -17 26 -5 18 -10 22 -17 15 -8 -8 -4 -18 12 -35 17 -19 19 -25 8 -29 -27
-10 -62 113 -36 128 9 6 10 1 5 -19 -4 -15 -2 -26 4 -26 6 0 13 13 16 29 l6
28 22 -21 c18 -17 20 -24 10 -39z m653 41 c-3 -8 -6 -5 -6 6 -1 11 2 17 5 13
3 -3 4 -12 1 -19z m-597 -9 c0 -5 -4 -9 -10 -9 -5 0 -10 7 -10 16 0 8 5 12 10
9 6 -3 10 -10 10 -16z m80 -28 c0 -17 -4 -32 -9 -35 -5 -3 -9 10 -9 29 0 19 4
35 9 35 5 0 9 -13 9 -29z m231 -4 c-8 -8 -11 -7 -11 4 0 20 13 34 18 19 3 -7
-1 -17 -7 -23z m3926 -19 c-3 -7 -5 -2 -5 12 0 14 2 19 5 13 2 -7 2 -19 0 -25z
m1278 -12 c-15 -20 -30 -36 -32 -36 -3 0 -1 6 4 13 5 6 17 25 27 40 10 16 20
26 23 24 3 -3 -7 -22 -22 -41z m1874 2 c0 -31 -3 -37 -8 -24 -7 18 -3 66 5 66
2 0 4 -19 3 -42z m-7393 5 c-10 -10 -19 5 -10 18 6 11 8 11 12 0 2 -7 1 -15
-2 -18z m204 5 c0 -13 -23 -5 -28 10 -2 7 2 10 12 6 9 -3 16 -11 16 -16z m80
2 c0 -5 -5 -10 -11 -10 -5 0 -7 5 -4 10 3 6 8 10 11 10 2 0 4 -4 4 -10z m90 1
c0 -5 -9 -7 -20 -4 -11 3 -20 7 -20 9 0 2 9 4 20 4 11 0 20 -4 20 -9z m3513
-31 c-3 -11 -9 -20 -15 -20 -5 0 -4 9 2 20 6 11 12 20 14 20 2 0 2 -9 -1 -20z
m-3776 -12 c-3 -8 -6 -5 -6 6 -1 11 2 17 5 13 3 -3 4 -12 1 -19z m30 0 c-3 -8
-6 -5 -6 6 -1 11 2 17 5 13 3 -3 4 -12 1 -19z m480 0 c-3 -8 -6 -5 -6 6 -1 11
2 17 5 13 3 -3 4 -12 1 -19z m3046 -3 c-3 -9 -8 -14 -10 -11 -3 3 -2 9 2 15 9
16 15 13 8 -4z m-3363 -20 c0 -8 -4 -15 -10 -15 -5 0 -10 7 -10 15 0 8 5 15
10 15 6 0 10 -7 10 -15z m54 -1 c10 -25 1 -27 -19 -4 -15 17 -16 20 -3 20 9 0
19 -7 22 -16z m2383 -41 c-3 -10 -5 -2 -5 17 0 19 2 27 5 18 2 -10 2 -26 0
-35z m4649 -7 c0 -30 -4 -52 -8 -50 -15 9 -9 104 7 104 0 0 1 -24 1 -54z
m-7306 35 c0 -6 -4 -13 -10 -16 -5 -3 -10 1 -10 9 0 9 5 16 10 16 6 0 10 -4
10 -9z m652 -49 c6 -7 8 -15 4 -19 -10 -10 -17 2 -20 38 -2 19 -1 25 1 14 3
-11 10 -26 15 -33z m1865 36 c-3 -8 -6 -5 -6 6 -1 11 2 17 5 13 3 -3 4 -12 1
-19z m-2600 -10 c-3 -8 -6 -5 -6 6 -1 11 2 17 5 13 3 -3 4 -12 1 -19z m109
-14 c-9 -13 -16 -30 -16 -39 0 -17 -16 -20 -25 -5 -9 14 34 82 46 74 6 -3 4
-15 -5 -30z m3694 17 c0 -10 -9 -29 -20 -42 l-20 -24 18 42 c19 48 22 51 22
24z m-2600 5 c0 -3 -4 -8 -10 -11 -5 -3 -10 -1 -10 4 0 6 5 11 10 11 6 0 10
-2 10 -4z m1510 1 c0 -2 -7 -18 -16 -35 -23 -47 -35 -48 -16 -2 9 22 20 40 25
40 4 0 7 -2 7 -3z m1240 -62 c-6 -12 -19 -26 -29 -32 -17 -11 -17 -9 1 25 10
20 18 45 19 57 0 17 1 17 10 -5 7 -17 6 -31 -1 -45z m-1384 13 c-9 -5 -16 -13
-16 -18 0 -12 -40 -53 -46 -47 -2 2 7 17 21 33 14 16 28 40 32 53 5 21 7 22
16 6 7 -13 5 -20 -7 -27z m-1889 10 c-3 -8 -6 -5 -6 6 -1 11 2 17 5 13 3 -3 4
-12 1 -19z m-703 -3 c-4 -8 -8 -15 -10 -15 -2 0 -4 7 -4 15 0 8 4 15 10 15 5
0 7 -7 4 -15z m3106 -4 c0 -5 -7 -14 -15 -21 -8 -7 -15 -19 -15 -28 0 -8 -3
-12 -6 -9 -9 8 16 67 27 67 5 0 9 -4 9 -9z m750 3 c0 -11 -62 -85 -67 -80 -3
3 6 19 21 36 14 17 26 36 26 41 0 5 5 9 10 9 6 0 10 -3 10 -6z m908 -14 c-7
-10 -14 -17 -17 -15 -2 3 -10 -3 -18 -13 -10 -12 -9 -8 2 16 8 17 22 32 30 32
13 0 13 -3 3 -20z m302 5 c-7 -8 -16 -12 -21 -9 -13 8 -1 24 18 24 13 0 13 -3
3 -15z m100 7 c0 -5 -9 -17 -20 -27 -23 -21 -26 -14 -8 15 13 20 28 27 28 12z
m-4995 -12 c3 -5 1 -10 -4 -10 -6 0 -11 5 -11 10 0 6 2 10 4 10 3 0 8 -4 11
-10z m58 -10 c3 -11 1 -18 -4 -14 -5 3 -9 0 -9 -5 0 -6 -4 -11 -9 -11 -5 0 -4
11 2 25 14 30 13 30 20 5z m1947 -1 c0 -5 -4 -9 -10 -9 -5 0 -10 7 -10 16 0 8
5 12 10 9 6 -3 10 -10 10 -16z m1587 -1 c-3 -8 -6 -5 -6 6 -1 11 2 17 5 13 3
-3 4 -12 1 -19z m1568 -23 c-15 -20 -29 -34 -32 -32 -5 6 26 58 41 69 22 15
17 -3 -9 -37z m-2335 26 c0 -5 -7 -17 -16 -25 -16 -17 -28 -21 -21 -8 2 4 7
15 10 25 7 18 27 24 27 8z m1307 -25 c-4 -9 -11 -16 -18 -16 -6 0 -8 7 -5 16
3 9 6 21 6 27 0 8 3 8 11 0 7 -7 9 -19 6 -27z m191 9 c-2 -26 -33 -63 -43 -53
-6 5 33 78 41 78 2 0 3 -11 2 -25z m462 15 c0 -5 -4 -10 -10 -10 -5 0 -10 -8
-10 -18 0 -9 -9 -23 -19 -29 -19 -12 -19 -11 -3 27 15 36 42 55 42 30z m266
-27 c-13 -24 -15 -25 -16 -7 0 11 5 25 12 32 19 19 21 6 4 -25z m315 14 c-10
-9 -11 -8 -5 6 3 10 9 15 12 12 3 -3 0 -11 -7 -18z m-4854 -9 c-3 -8 -6 -5 -6
6 -1 11 2 17 5 13 3 -3 4 -12 1 -19z m2753 7 c0 -8 -4 -15 -10 -15 -5 0 -10 7
-10 15 0 8 5 15 10 15 6 0 10 -7 10 -15z m758 1 c-2 -1 -12 -8 -22 -16 -18
-14 -18 -14 -6 7 8 12 18 19 23 16 4 -3 7 -6 5 -7z m-169 -38 c-12 -20 -14
-21 -17 -5 -2 10 2 25 9 34 18 21 23 0 8 -29z m805 28 c-3 -8 -12 -17 -20 -20
-12 -4 -12 -2 -4 14 12 23 32 27 24 6z m977 -19 c-8 -8 -11 -7 -11 4 0 9 3 19
7 23 4 4 9 2 11 -4 3 -7 -1 -17 -7 -23z m-4494 1 c-3 -8 -6 -5 -6 6 -1 11 2
17 5 13 3 -3 4 -12 1 -19z m3702 -17 c-22 -30 -39 -40 -39 -22 0 11 52 63 57
57 3 -2 -5 -18 -18 -35z m411 35 c0 -3 -4 -8 -10 -11 -5 -3 -10 -1 -10 4 0 6
5 11 10 11 6 0 10 -2 10 -4z m1990 -37 c0 -24 -4 -38 -10 -34 -5 3 -8 20 -6
38 6 39 5 37 11 37 3 0 5 -18 5 -41z m-7298 9 c5 -30 -1 -58 -13 -58 -15 0
-22 27 -15 55 8 31 22 32 28 3z m1928 -4 c0 -8 -4 -12 -10 -9 -5 3 -10 13 -10
21 0 8 5 12 10 9 6 -3 10 -13 10 -21z m1360 -6 c-1 -26 -3 -30 -10 -16 -6 9
-7 23 -4 32 9 25 14 19 14 -16z m1161 -1 c-16 -16 -26 0 -10 19 9 11 15 12 17
4 2 -6 -1 -17 -7 -23z m949 29 c0 -2 -8 -10 -17 -17 -16 -13 -17 -12 -4 4 13
16 21 21 21 13z m-2763 -26 c1 -11 -2 -20 -8 -20 -5 0 -9 9 -9 20 0 11 4 20 8
20 4 0 8 -9 9 -20z m444 -7 c-8 -15 -10 -15 -11 -2 0 17 10 32 18 25 2 -3 -1
-13 -7 -23z m1174 8 c-3 -6 -11 -8 -17 -5 -6 4 -5 9 3 15 16 10 23 4 14 -10z
m726 -8 c-12 -20 -14 -14 -5 12 4 9 9 14 11 11 3 -2 0 -13 -6 -23z m-3417 2
c-4 -8 -8 -15 -10 -15 -2 0 -4 7 -4 15 0 8 4 15 10 15 5 0 7 -7 4 -15z m-1674
-10 c-6 -8 -9 -19 -5 -25 10 -16 -4 -12 -31 9 -22 17 -23 20 -7 24 10 3 26 5
37 6 15 1 16 -2 6 -14z m2948 -10 c-3 -3 -9 2 -12 12 -6 14 -5 15 5 6 7 -7 10
-15 7 -18z m1762 15 c0 -5 -4 -10 -10 -10 -5 0 -10 5 -10 10 0 6 5 10 10 10 6
0 10 -4 10 -10z m700 0 c0 -5 -5 -10 -11 -10 -5 0 -7 5 -4 10 3 6 8 10 11 10
2 0 4 -4 4 -10z m-5255 -20 c3 -5 1 -10 -4 -10 -6 0 -11 5 -11 10 0 6 2 10 4
10 3 0 8 -4 11 -10z m95 -10 c0 -5 -5 -10 -11 -10 -5 0 -7 5 -4 10 3 6 8 10
11 10 2 0 4 -4 4 -10z m-320 -35 c0 -8 -4 -15 -10 -15 -5 0 -10 7 -10 15 0 8
5 15 10 15 6 0 10 -7 10 -15z m174 -11 c4 -15 4 -29 1 -32 -8 -8 -25 19 -25
41 0 26 17 20 24 -9z m-130 8 c2 -4 -4 -8 -15 -8 -10 0 -19 4 -19 8 0 4 6 8
14 8 8 0 17 -4 20 -8z m7436 -17 c0 -8 -4 -15 -10 -15 -5 0 -10 7 -10 15 0 8
5 15 10 15 6 0 10 -7 10 -15z m-7150 -28 c0 -5 -4 -5 -10 -2 -5 3 -10 14 -10
23 0 15 2 15 10 2 5 -8 10 -19 10 -23z m-240 3 c0 -23 -13 -26 -29 -6 -9 11
-9 15 1 19 23 10 28 7 28 -13z m499 -30 c1 -13 0 -13 -9 0 -5 8 -9 24 -9 35
l0 20 9 -20 c5 -11 9 -27 9 -35z m3201 30 c0 -5 -5 -10 -11 -10 -5 0 -7 5 -4
10 3 6 8 10 11 10 2 0 4 -4 4 -10z m-3774 -37 c-11 -11 -19 6 -11 24 8 17 8
17 12 0 3 -10 2 -21 -1 -24z m685 10 c-12 -20 -14 -14 -5 12 4 9 9 14 11 11 3
-2 0 -13 -6 -23z m6779 -5 c-1 -28 -2 -30 -11 -15 -6 10 -8 25 -5 33 9 24 16
16 16 -18z m-7595 12 c4 -6 13 -5 24 2 33 21 50 4 47 -47 -2 -25 -7 -49 -11
-53 -4 -4 -6 2 -5 13 4 39 0 51 -20 52 -22 2 -23 1 -14 -22 5 -13 8 -14 15 -3
6 8 8 -2 8 -27 -1 -27 -3 -34 -7 -20 -4 11 -13 21 -21 23 -11 2 -12 0 -3 -11
7 -8 10 -21 7 -29 -10 -25 27 -17 51 11 l23 26 -10 -43 c-5 -24 -6 -48 -3 -54
4 -7 2 -8 -4 -4 -7 4 -13 -7 -18 -29 -3 -19 -9 -33 -13 -31 -3 2 -7 -29 -7
-70 -1 -41 2 -74 7 -74 19 0 1 -63 -23 -80 -4 -3 -3 -12 2 -20 7 -12 11 -10
19 10 l10 25 0 -27 c1 -16 -4 -28 -10 -28 -7 0 -9 -12 -5 -34 4 -20 2 -37 -4
-41 -5 -3 -10 2 -10 12 0 15 -2 15 -9 4 -5 -8 -10 -49 -11 -90 -2 -107 -7
-167 -14 -180 -4 -6 -3 -11 3 -11 7 0 7 -8 1 -26 -8 -20 -7 -25 2 -22 7 3 15
13 17 24 4 25 20 44 37 44 17 0 18 -29 3 -50 -9 -12 -10 -11 -6 8 3 12 1 20
-4 16 -5 -3 -9 -19 -9 -35 0 -17 -7 -43 -15 -59 -8 -16 -12 -36 -8 -45 3 -10
0 -21 -8 -26 -12 -8 -11 -12 4 -23 11 -9 15 -20 11 -32 -6 -17 -5 -17 9 1 16
20 16 20 17 -2 0 -21 -14 -29 -42 -24 -13 2 -9 -20 8 -36 14 -14 16 -14 29 3
8 11 15 22 15 27 0 4 12 7 27 7 14 0 24 -2 22 -4 -2 -2 -7 -4 -10 -3 -12 3
-49 -36 -49 -51 0 -8 -6 -12 -15 -8 -9 3 -15 0 -15 -9 0 -8 -6 -12 -14 -9 -10
4 -12 -2 -9 -20 6 -29 13 -32 31 -14 8 8 12 9 12 1 0 -24 -12 -41 -26 -36 -8
3 -14 -1 -14 -11 0 -21 19 -20 42 1 27 24 22 -1 -7 -35 -30 -36 -32 -62 -5
-62 11 0 20 -7 20 -15 0 -17 -16 -20 -25 -5 -3 6 -10 10 -14 10 -13 0 -5 -64
8 -68 14 -5 15 -42 0 -42 -5 0 -7 5 -4 10 3 6 1 10 -5 10 -6 0 -8 -10 -4 -26
5 -20 3 -25 -7 -22 -10 3 -15 31 -17 109 -6 183 -10 1333 -5 1372 5 36 16 47
28 27z m649 -6 c3 -8 2 -12 -4 -9 -6 3 -10 10 -10 16 0 14 7 11 14 -7z m249
-1 c-7 -3 -14 -14 -14 -26 -1 -18 -2 -19 -6 -4 -5 19 16 52 26 41 3 -4 0 -9
-6 -11z m-724 -7 c10 -12 8 -13 -8 -9 -12 3 -21 9 -21 14 0 14 16 11 29 -5z
m295 -17 c-6 -11 -24 -2 -24 11 0 5 7 7 15 4 8 -4 12 -10 9 -15z m5629 -4 c-3
-9 -8 -14 -10 -11 -3 3 -2 9 2 15 9 16 15 13 8 -4z m-5983 -21 c0 -8 -4 -14
-10 -14 -5 0 -10 9 -10 21 0 11 5 17 10 14 6 -3 10 -13 10 -21z m180 10 c0 -8
-4 -12 -10 -9 -5 3 -10 10 -10 16 0 5 5 9 10 9 6 0 10 -7 10 -16z m5510 -8 c0
-3 -4 -8 -10 -11 -5 -3 -10 -1 -10 4 0 6 5 11 10 11 6 0 10 -2 10 -4z m-5410
-22 c0 -8 -5 -12 -10 -9 -6 4 -8 11 -5 16 9 14 15 11 15 -7z m-123 -16 c-3 -8
-6 -5 -6 6 -1 11 2 17 5 13 3 -3 4 -12 1 -19z m5973 2 c0 -11 -2 -20 -4 -20
-2 0 -6 9 -9 20 -3 11 -1 20 4 20 5 0 9 -9 9 -20z m-6134 -82 c-15 -40 -20
-26 -11 29 7 41 9 44 15 23 3 -14 2 -37 -4 -52z m319 62 c3 -6 -1 -7 -9 -4
-18 7 -21 14 -7 14 6 0 13 -4 16 -10z m7162 -12 c-3 -8 -6 -5 -6 6 -1 11 2 17
5 13 3 -3 4 -12 1 -19z m-7399 0 c7 -7 12 -23 11 -37 l-1 -26 -7 25 c-4 15
-14 24 -23 22 -9 -1 -18 4 -22 13 -7 18 24 21 42 3z m132 -1 c0 -8 -7 -28 -16
-46 -9 -18 -16 -47 -16 -66 0 -19 -6 -39 -14 -46 -10 -8 -14 -8 -14 0 0 6 4
11 10 11 5 0 7 7 4 15 -3 8 -1 28 4 45 10 29 0 44 -12 18 -3 -7 -4 -2 -3 12 1
18 7 24 20 22 12 -2 17 4 17 23 0 14 5 25 10 25 6 0 10 -6 10 -13z m56 -36
c-9 -12 -12 -11 -14 3 -2 9 -1 25 3 34 6 15 8 15 15 -3 4 -12 3 -26 -4 -34z
m314 25 c0 -3 -4 -8 -10 -11 -5 -3 -10 -1 -10 4 0 6 5 11 10 11 6 0 10 -2 10
-4z m743 -26 c-3 -12 -8 -19 -11 -16 -5 6 5 36 12 36 2 0 2 -9 -1 -20z m34 -2
c-3 -8 -6 -5 -6 6 -1 11 2 17 5 13 3 -3 4 -12 1 -19z m-190 -20 c-3 -8 -6 -5
-6 6 -1 11 2 17 5 13 3 -3 4 -12 1 -19z m-1103 -20 c-9 -14 -23 2 -17 18 4 12
8 13 14 3 4 -7 5 -17 3 -21z m501 13 c3 -5 1 -12 -5 -16 -5 -3 -10 1 -10 9 0
18 6 21 15 7z m-248 -53 c-2 -13 -4 -5 -4 17 -1 22 1 32 4 23 2 -10 2 -28 0
-40z m810 30 c-3 -8 -6 -5 -6 6 -1 11 2 17 5 13 3 -3 4 -12 1 -19z m-840 -10
c-3 -8 -6 -5 -6 6 -1 11 2 17 5 13 3 -3 4 -12 1 -19z m263 -13 c0 -8 -4 -15
-10 -15 -5 0 -7 7 -4 15 4 8 8 15 10 15 2 0 4 -7 4 -15z m-553 -41 c2 -36 1
-38 -12 -20 -17 23 -19 36 -5 36 6 0 10 5 10 11 0 5 -4 7 -10 4 -5 -3 -10 -1
-10 5 0 7 6 10 13 8 6 -3 13 -22 14 -44z m252 9 c-2 -21 -8 -44 -13 -52 -8
-11 -8 -13 2 -7 15 9 15 4 0 -29 -10 -22 -9 -28 2 -35 8 -5 11 -12 7 -16 -13
-14 -31 16 -32 54 -1 20 -5 47 -9 60 -6 19 -4 24 13 29 12 3 21 12 21 19 0 8
3 14 6 14 3 0 4 -17 3 -37z m478 15 c-3 -8 -6 -5 -6 6 -1 11 2 17 5 13 3 -3 4
-12 1 -19z m329 -15 c-10 -10 -19 5 -10 18 6 11 8 11 12 0 2 -7 1 -15 -2 -18z
m-984 -5 c-7 -7 -12 -8 -12 -2 0 14 12 26 19 19 2 -3 -1 -11 -7 -17z m4048 13
c0 -6 -4 -13 -10 -16 -5 -3 -10 1 -10 9 0 9 5 16 10 16 6 0 10 -4 10 -9z
m-4157 -44 c-8 -13 -23 3 -23 26 0 20 0 20 14 2 8 -11 12 -23 9 -28z m347 11
c0 -18 -2 -20 -9 -8 -6 8 -7 18 -5 22 9 14 14 9 14 -14z m124 -27 c-7 -9 -24
13 -24 32 0 21 1 21 13 -3 8 -14 12 -27 11 -29z m106 39 c0 -5 -2 -10 -4 -10
-3 0 -8 5 -11 10 -3 6 -1 10 4 10 6 0 11 -4 11 -10z m23 -10 c-3 -11 -7 -20
-9 -20 -2 0 -4 9 -4 20 0 11 4 20 9 20 5 0 7 -9 4 -20z m-481 -38 c-7 -2 -12
-10 -12 -17 0 -7 -8 -23 -18 -35 -18 -22 -18 -22 -19 -1 -1 13 4 21 14 21 10
0 14 6 10 20 -3 13 0 20 9 20 8 0 14 6 15 13 0 8 3 7 6 -2 3 -8 1 -17 -5 -19z
m88 -23 c0 -24 4 -38 10 -34 6 3 10 0 10 -9 0 -8 -4 -16 -9 -18 -4 -1 -5 -23
-1 -48 5 -28 8 -35 9 -20 2 23 3 24 11 5 13 -30 12 -45 -5 -45 -11 0 -13 -8
-8 -32 5 -24 3 -29 -7 -23 -10 6 -11 2 -6 -18 3 -14 2 -29 -4 -32 -6 -4 -10
18 -10 59 0 35 -3 72 -7 82 -5 13 -3 15 7 9 9 -5 11 -4 6 3 -12 20 -18 175 -7
167 6 -3 11 -24 11 -46z m6507 29 c-3 -8 -6 -5 -6 6 -1 11 2 17 5 13 3 -3 4
-12 1 -19z m-6477 -14 c0 -14 -4 -23 -9 -20 -5 3 -7 15 -4 26 7 28 13 25 13
-6z m307 -9 c-1 -19 -3 -32 -6 -30 -7 8 -8 65 0 65 4 0 7 -16 6 -35z m-140 -7
c-3 -7 -5 -2 -5 12 0 14 2 19 5 13 2 -7 2 -19 0 -25z m560 0 c-3 -7 -5 -2 -5
12 0 14 2 19 5 13 2 -7 2 -19 0 -25z m-980 -15 c-3 -10 -5 -4 -5 12 0 17 2 24
5 18 2 -7 2 -21 0 -30z m25 -9 c-2 -23 1 -33 8 -29 5 3 10 22 10 41 0 22 4 33
11 29 6 -4 8 -13 5 -21 -3 -7 -1 -16 3 -19 11 -6 2 -45 -9 -45 -10 0 -21 -71
-20 -133 0 -32 -6 -54 -16 -65 -15 -14 -15 -17 0 -27 17 -13 22 -35 7 -35 -5
0 -12 -14 -16 -31 -4 -17 -13 -42 -20 -56 l-14 -26 -6 39 c-3 21 -8 47 -10 57
-2 9 1 17 7 17 5 0 6 10 3 23 -15 52 -17 62 -7 48 8 -11 12 -9 23 10 7 13 12
33 11 44 -2 17 -1 17 8 5 7 -11 9 1 8 45 -3 78 4 177 11 170 3 -3 4 -22 3 -41z
m308 21 c0 -8 -4 -15 -10 -15 -5 0 -10 7 -10 15 0 8 5 15 10 15 6 0 10 -7 10
-15z m270 -26 c0 -17 -4 -28 -10 -24 -5 3 -10 -2 -10 -11 0 -10 -3 -15 -6 -11
-6 6 14 77 22 77 2 0 4 -14 4 -31z m430 16 c0 -12 -19 -12 -23 0 -4 9 -1 12 9
8 7 -3 14 -7 14 -8z m-194 -27 c-2 -18 -9 -34 -16 -36 -6 -2 -20 -23 -31 -46
-18 -41 -18 -41 -16 -9 1 20 11 38 25 49 12 9 22 27 22 39 0 19 7 35 17 35 1
0 1 -14 -1 -32z m-469 -10 c-3 -7 -5 -2 -5 12 0 14 2 19 5 13 2 -7 2 -19 0
-25z m271 -11 c-6 -17 -15 -36 -21 -42 -7 -7 -7 -3 -2 10 4 11 10 32 13 47 2
15 8 25 13 23 4 -3 3 -20 -3 -38z m49 21 c-3 -8 -6 -5 -6 6 -1 11 2 17 5 13 3
-3 4 -12 1 -19z m-357 -9 c0 -5 -4 -9 -10 -9 -5 0 -10 7 -10 16 0 8 5 12 10 9
6 -3 10 -10 10 -16z m600 0 c0 -11 -4 -17 -10 -14 -5 3 -10 13 -10 21 0 8 5
14 10 14 6 0 10 -9 10 -21z m67 -1 c-3 -8 -6 -5 -6 6 -1 11 2 17 5 13 3 -3 4
-12 1 -19z m-20 -30 c0 -18 -9 -46 -20 -63 -10 -16 -16 -21 -12 -10 4 11 10
39 12 63 7 50 20 56 20 10z m83 17 c0 -8 -4 -15 -10 -15 -5 0 -10 7 -10 15 0
8 5 15 10 15 6 0 10 -7 10 -15z m-513 -15 c-3 -19 -27 -52 -27 -37 0 8 22 57
27 57 1 0 1 -9 0 -20z m330 -19 c-12 -33 -47 -60 -47 -36 0 11 47 65 57 65 0
0 -4 -13 -10 -29z m5548 19 c3 -5 1 -10 -4 -10 -6 0 -11 5 -11 10 0 6 2 10 4
10 3 0 8 -4 11 -10z m-6135 -35 c0 -19 -4 -35 -10 -35 -5 0 -10 16 -10 35 0
19 5 35 10 35 6 0 10 -16 10 -35z m50 20 c-7 -9 -15 -13 -17 -11 -7 7 7 26 19
26 6 0 6 -6 -2 -15z m237 -27 c-3 -7 -5 -2 -5 12 0 14 2 19 5 13 2 -7 2 -19 0
-25z m153 17 c0 -8 -2 -15 -4 -15 -2 0 -6 7 -10 15 -3 8 -1 15 4 15 6 0 10 -7
10 -15z m330 1 c0 -8 -4 -18 -10 -21 -5 -3 -10 3 -10 14 0 12 5 21 10 21 6 0
10 -6 10 -14z m-703 -43 c1 -26 0 -26 -13 -9 -7 10 -11 23 -8 27 10 17 19 9
21 -18z m26 7 c-3 -12 -8 -19 -11 -16 -5 6 5 36 12 36 2 0 2 -9 -1 -20z m6067
10 c0 -5 -5 -10 -11 -10 -5 0 -7 5 -4 10 3 6 8 10 11 10 2 0 4 -4 4 -10z
m-5890 -4 c0 -2 -7 -6 -15 -10 -8 -3 -15 -1 -15 4 0 6 7 10 15 10 8 0 15 -2
15 -4z m142 -18 c-7 -7 -12 -8 -12 -2 0 14 12 26 19 19 2 -3 -1 -11 -7 -17z
m115 -10 c-3 -8 -6 -5 -6 6 -1 11 2 17 5 13 3 -3 4 -12 1 -19z m5763 18 c0 -2
-7 -9 -15 -16 -13 -11 -14 -10 -9 4 5 14 24 23 24 12z m-6000 -19 c0 -8 -7
-14 -15 -14 -11 0 -12 4 -4 14 6 7 13 13 15 13 2 0 4 -6 4 -13z m5960 -7 c0
-5 -5 -10 -11 -10 -5 0 -7 5 -4 10 3 6 8 10 11 10 2 0 4 -4 4 -10z m-6450 -15
c10 -12 9 -16 -9 -23 -19 -7 -20 -10 -8 -26 13 -18 15 -18 41 -1 l28 19 -4
-25 c-2 -13 -9 -23 -16 -21 -6 1 -12 -6 -12 -15 -1 -17 -1 -17 -14 0 -19 25
-26 21 -26 -14 0 -27 2 -30 15 -19 18 15 19 10 3 -27 -6 -15 -10 -33 -9 -40 1
-6 -8 -11 -19 -10 -14 1 -18 6 -14 19 10 33 10 128 -1 132 -6 2 -5 8 3 17 6 7
12 21 12 31 0 22 13 23 30 3z m287 -7 c-3 -8 -6 -5 -6 6 -1 11 2 17 5 13 3 -3
4 -12 1 -19z m49 -5 c-10 -10 -19 5 -10 18 6 11 8 11 12 0 2 -7 1 -15 -2 -18z
m-147 -20 c0 -33 -1 -35 -9 -15 -8 20 -4 52 6 52 2 0 4 -17 3 -37z m71 16 c0
-6 -4 -7 -10 -4 -6 3 -10 -4 -10 -16 0 -12 -3 -20 -6 -16 -10 10 5 58 16 52 6
-3 10 -11 10 -16z m290 -19 c-15 -28 -23 -20 -14 15 4 17 10 23 16 17 6 -6 6
-18 -2 -32z m-90 0 c-6 -11 -8 -25 -5 -30 3 -6 -1 -10 -9 -10 -12 0 -13 5 -5
30 6 17 15 30 20 30 6 0 5 -9 -1 -20z m175 10 c3 -5 1 -10 -4 -10 -6 0 -11 5
-11 10 0 6 2 10 4 10 3 0 8 -4 11 -10z m-245 -10 c0 -5 -2 -10 -4 -10 -3 0 -8
5 -11 10 -3 6 -1 10 4 10 6 0 11 -4 11 -10z m5060 6 c0 -3 -4 -8 -10 -11 -5
-3 -10 -1 -10 4 0 6 5 11 10 11 6 0 10 -2 10 -4z m-4960 -51 c-6 -7 -8 -24 -5
-37 3 -13 0 -31 -8 -42 -12 -17 -14 -17 -20 -2 -4 9 -3 16 2 16 5 0 12 26 16
57 5 45 9 53 17 39 6 -11 6 -21 -2 -31z m3067 13 c-3 -7 -5 -2 -5 12 0 14 2
19 5 13 2 -7 2 -19 0 -25z m2866 -3 c-5 -13 -23 -22 -23 -11 0 15 14 35 21 31
4 -3 6 -12 2 -20z m-6106 -17 c-3 -8 -6 -5 -6 6 -1 11 2 17 5 13 3 -3 4 -12 1
-19z m48 12 c3 -5 -1 -10 -9 -10 -9 0 -16 5 -16 10 0 6 4 10 9 10 6 0 13 -4
16 -10z m5985 -15 c0 -8 -4 -15 -10 -15 -5 0 -7 7 -4 15 4 8 8 15 10 15 2 0 4
-7 4 -15z m-5800 1 c0 -3 -4 -8 -10 -11 -5 -3 -10 -1 -10 4 0 6 5 11 10 11 6
0 10 -2 10 -4z m5017 -18 c-3 -8 -6 -5 -6 6 -1 11 2 17 5 13 3 -3 4 -12 1 -19z
m707 -18 c-6 -6 -10 -3 -10 10 0 13 4 16 10 10 7 -7 7 -13 0 -20z m-5417 -12
c-3 -7 -5 -2 -5 12 0 14 2 19 5 13 2 -7 2 -19 0 -25z m590 10 c-3 -8 -6 -5 -6
6 -1 11 2 17 5 13 3 -3 4 -12 1 -19z m2368 2 c3 -5 1 -10 -4 -10 -6 0 -11 5
-11 10 0 6 2 10 4 10 3 0 8 -4 11 -10z m-3685 -10 c0 -5 -5 -10 -11 -10 -5 0
-7 5 -4 10 3 6 8 10 11 10 2 0 4 -4 4 -10z m206 -42 c-9 -5 -16 -20 -16 -34 0
-14 -4 -22 -10 -19 -17 10 -11 40 12 65 15 16 23 19 26 10 3 -7 -3 -17 -12
-22z m-198 -24 c-13 -13 -15 -11 -15 15 0 26 2 27 15 14 13 -13 13 -16 0 -29z
m615 26 c3 -11 1 -18 -4 -14 -5 3 -9 12 -9 20 0 20 7 17 13 -6z m88 -7 c-8
-15 -10 -15 -11 -2 0 17 10 32 18 25 2 -3 -1 -13 -7 -23z m-641 8 c0 -5 -6
-14 -14 -20 -12 -10 -13 -8 -9 8 5 21 23 30 23 12z m5467 -13 c-3 -8 -6 -5 -6
6 -1 11 2 17 5 13 3 -3 4 -12 1 -19z m643 12 c0 -5 -4 -10 -10 -10 -5 0 -10 5
-10 10 0 6 5 10 10 10 6 0 10 -4 10 -10z m-6050 -70 c-5 -10 -6 -21 -2 -25 4
-5 -1 -5 -11 -2 -10 4 -23 7 -28 7 -5 0 -9 5 -9 10 0 6 9 10 20 10 16 0 20 7
21 38 1 37 1 37 9 8 5 -17 5 -36 0 -46z m5060 50 c0 -5 -5 -10 -11 -10 -5 0
-7 5 -4 10 3 6 8 10 11 10 2 0 4 -4 4 -10z m-5260 -10 c0 -5 -4 -10 -10 -10
-5 0 -10 5 -10 10 0 6 5 10 10 10 6 0 10 -4 10 -10z m676 -12 c4 -6 3 -8 -4
-4 -5 3 -13 0 -15 -6 -3 -8 -6 -6 -6 5 -1 19 14 23 25 5z m-210 -30 c-9 -12
-16 -19 -16 -15 0 11 24 47 28 42 2 -2 -3 -14 -12 -27z m-555 -21 c-7 -7 -12
-5 -17 7 -4 11 -1 21 7 27 17 11 26 -18 10 -34z m167 -46 c-6 -33 -14 -61 -17
-61 -5 0 -7 116 -2 143 0 5 8 2 16 -6 12 -12 12 -25 3 -76z m739 52 c-3 -10
-5 -4 -5 12 0 17 2 24 5 18 2 -7 2 -21 0 -30z m4373 33 c0 -3 -4 -8 -10 -11
-5 -3 -10 -1 -10 4 0 6 5 11 10 11 6 0 10 -2 10 -4z m-4603 -28 c-3 -8 -6 -5
-6 6 -1 11 2 17 5 13 3 -3 4 -12 1 -19z m2408 -16 c-10 -10 -16 -12 -13 -7 3
6 8 19 13 30 5 14 9 16 12 7 3 -8 -3 -21 -12 -30z m2622 1 c-3 -10 -5 -4 -5
12 0 17 2 24 5 18 2 -7 2 -21 0 -30z m93 17 c0 -5 -4 -10 -10 -10 -5 0 -10 5
-10 10 0 6 5 10 10 10 6 0 10 -4 10 -10z m677 -12 c-3 -8 -6 -5 -6 6 -1 11 2
17 5 13 3 -3 4 -12 1 -19z m-6534 -3 c-3 -9 -8 -14 -10 -11 -3 3 -2 9 2 15 9
16 15 13 8 -4z m145 -20 c-1 -14 -8 -25 -15 -25 -7 0 -13 -5 -13 -12 0 -6 -3
-8 -6 -5 -8 8 16 67 27 67 5 0 8 -11 7 -25z m-70 3 c19 -2 14 -18 -5 -18 -14
0 -15 -2 -4 -9 7 -5 10 -14 6 -20 -5 -9 -10 -9 -21 0 -11 9 -14 7 -14 -15 0
-15 5 -37 11 -48 7 -13 7 -18 1 -14 -6 4 -16 -2 -22 -11 -8 -13 -13 -14 -16
-5 -3 6 -10 10 -15 6 -15 -9 -10 30 6 53 8 12 16 38 17 58 3 31 6 35 23 30 11
-4 26 -7 33 -7z m6272 -3 c0 -8 -4 -15 -10 -15 -5 0 -7 7 -4 15 4 8 8 15 10
15 2 0 4 -7 4 -15z m-3326 -30 c-4 -8 -8 -15 -10 -15 -2 0 -4 7 -4 15 0 8 4
15 10 15 5 0 7 -7 4 -15z m233 -17 c-3 -7 -5 -2 -5 12 0 14 2 19 5 13 2 -7 2
-19 0 -25z m-2952 12 c3 -5 1 -10 -4 -10 -6 0 -11 5 -11 10 0 6 2 10 4 10 3 0
8 -4 11 -10z m286 -53 c-6 -15 -16 -27 -23 -27 -9 0 -10 3 -2 8 6 4 15 25 19
47 6 27 10 33 12 19 2 -11 -1 -32 -6 -47z m168 -6 c1 -48 -5 -36 -13 24 -4 34
-3 43 3 30 5 -11 10 -35 10 -54z m-613 14 c1 -14 -2 -25 -7 -25 -5 0 -9 5 -9
11 0 5 -4 7 -10 4 -5 -3 -10 -15 -10 -26 0 -10 -5 -19 -11 -19 -7 0 -8 7 -4
18 19 47 19 47 -3 29 -22 -20 -42 -16 -42 9 0 10 12 14 40 14 24 0 40 5 40 12
0 21 13 -1 16 -27z m3054 25 c0 -5 -5 -10 -11 -10 -5 0 -7 5 -4 10 3 6 8 10
11 10 2 0 4 -4 4 -10z m4195 -20 c3 -5 1 -10 -4 -10 -6 0 -11 5 -11 10 0 6 2
10 4 10 3 0 8 -4 11 -10z m-6885 -20 c0 -5 -4 -10 -10 -10 -5 0 -10 5 -10 10
0 6 5 10 10 10 6 0 10 -4 10 -10z m5217 -12 c-3 -8 -6 -5 -6 6 -1 11 2 17 5
13 3 -3 4 -12 1 -19z m90 0 c-3 -8 -6 -5 -6 6 -1 11 2 17 5 13 3 -3 4 -12 1
-19z m1618 -18 c-8 -16 -19 -32 -25 -35 -14 -9 -13 18 2 33 7 7 9 12 5 12 -4
0 -2 6 5 14 21 23 29 7 13 -24z m-7207 -10 c-7 -10 -14 -17 -17 -15 -4 4 18
35 25 35 2 0 -1 -9 -8 -20z m1772 16 c0 -3 -4 -8 -10 -11 -5 -3 -10 -1 -10 4
0 6 5 11 10 11 6 0 10 -2 10 -4z m3087 -18 c-3 -8 -6 -5 -6 6 -1 11 2 17 5 13
3 -3 4 -12 1 -19z m-4467 -2 c0 -3 -4 -8 -10 -11 -5 -3 -10 -1 -10 4 0 6 5 11
10 11 6 0 10 -2 10 -4z m6850 -17 c-7 -11 -14 -18 -17 -15 -8 8 5 36 17 36 7
0 7 -6 0 -21z m-1643 -11 c-3 -8 -6 -5 -6 6 -1 11 2 17 5 13 3 -3 4 -12 1 -19z
m-5731 -15 c-10 -10 -19 5 -10 18 6 11 8 11 12 0 2 -7 1 -15 -2 -18z m454 23
c0 -2 -7 -9 -15 -16 -12 -10 -15 -10 -15 4 0 9 7 16 15 16 8 0 15 -2 15 -4z
m3677 -18 c-3 -8 -6 -5 -6 6 -1 11 2 17 5 13 3 -3 4 -12 1 -19z m-4177 3 c3
-1 -3 -6 -13 -12 -17 -10 -37 -5 -37 10 0 7 31 8 50 2z m397 -13 c-3 -8 -6 -5
-6 6 -1 11 2 17 5 13 3 -3 4 -12 1 -19z m-227 8 c0 -3 -4 -8 -10 -11 -5 -3
-10 -1 -10 4 0 6 5 11 10 11 6 0 10 -2 10 -4z m5680 -31 c0 -5 -5 -3 -10 5 -5
8 -10 20 -10 25 0 6 5 3 10 -5 5 -8 10 -19 10 -25z m-5753 -27 c0 -46 -1 -49
-10 -25 -7 23 -3 77 6 77 2 0 3 -24 4 -52z m5680 20 c-3 -7 -5 -2 -5 12 0 14
2 19 5 13 2 -7 2 -19 0 -25z m1603 22 c-19 -13 -30 -13 -30 0 0 6 10 10 23 10
18 0 19 -2 7 -10z m-7384 -36 c13 -16 28 -19 19 -4 -3 6 -1 10 4 10 6 0 11 -7
11 -15 0 -19 -19 -19 -41 1 -16 14 -18 14 -24 -7 -6 -17 -9 -19 -16 -8 -5 8
-9 22 -9 32 0 14 5 17 23 12 12 -4 27 -13 33 -21z m454 22 c0 -3 -4 -8 -10
-11 -5 -3 -10 -1 -10 4 0 6 5 11 10 11 6 0 10 -2 10 -4z m6936 -33 c-1 -16 -7
-28 -14 -28 -7 0 -17 -7 -22 -15 -7 -10 -8 -3 -6 24 5 57 44 75 42 19z m-7208
-4 c-1 -20 -4 -26 -9 -17 -12 18 -11 48 0 48 5 0 9 -14 9 -31z m62 11 c0 -4
-7 -10 -15 -14 -8 -3 -15 -14 -15 -23 0 -24 -29 -65 -41 -58 -5 4 -9 16 -8 28
0 21 1 21 8 2 7 -19 9 -18 21 5 7 14 13 26 12 28 -1 1 -2 13 -2 26 0 19 4 23
20 19 11 -3 20 -9 20 -13z m330 10 c0 -5 -5 -10 -11 -10 -5 0 -7 5 -4 10 3 6
8 10 11 10 2 0 4 -4 4 -10z m-226 -25 c-17 -26 -24 -31 -24 -16 0 10 28 41 36
41 2 0 -3 -11 -12 -25z m6706 21 c0 -3 -4 -8 -10 -11 -5 -3 -10 -1 -10 4 0 6
5 11 10 11 6 0 10 -2 10 -4z m-6623 -17 c-9 -6 -15 -14 -12 -20 4 -5 2 -9 -4
-9 -5 0 -13 5 -17 11 -7 13 13 29 36 29 12 -1 11 -3 -3 -11z m4580 -21 c-3 -8
-6 -5 -6 6 -1 11 2 17 5 13 3 -3 4 -12 1 -19z m-4706 -21 c-16 -16 -25 -1 -10
16 8 8 16 11 18 5 2 -5 -2 -15 -8 -21z m7009 5 c-6 -2 -10 -8 -10 -14 0 -6 7
-8 15 -4 8 3 15 1 15 -4 0 -5 -8 -11 -18 -14 -10 -4 -28 -25 -40 -49 -12 -23
-22 -36 -22 -29 0 13 28 70 40 82 3 3 5 11 6 18 4 47 4 48 14 32 6 -10 6 -16
0 -18z m-6754 -28 c-3 -8 -1 -14 4 -14 6 0 10 -5 10 -11 0 -5 -5 -7 -10 -4 -7
4 -9 -3 -5 -22 5 -24 5 -26 -5 -9 -7 10 -10 33 -7 52 3 20 2 34 -4 34 -6 0 -7
5 -3 11 9 16 28 -17 20 -37z m-528 8 c2 -7 -2 -10 -12 -6 -9 3 -16 11 -16 16
0 13 23 5 28 -10z m7362 10 c0 -4 -9 -13 -20 -19 -10 -7 -24 -30 -29 -50 -9
-33 -14 -38 -40 -38 -16 -1 -27 3 -25 7 3 5 9 6 13 3 5 -2 13 7 20 22 19 41
81 99 81 75z m-390 -11 c0 -5 -7 -11 -14 -14 -10 -4 -13 -1 -9 9 6 15 23 19
23 5z m-6900 -16 c0 -8 -4 -15 -10 -15 -5 0 -10 7 -10 15 0 8 5 15 10 15 6 0
10 -7 10 -15z m290 11 c0 -3 -4 -8 -10 -11 -5 -3 -10 -1 -10 4 0 6 5 11 10 11
6 0 10 -2 10 -4z m130 -16 c-6 -11 -13 -20 -16 -20 -2 0 0 9 6 20 6 11 13 20
16 20 2 0 0 -9 -6 -20z m3271 -3 c-10 -9 -11 -8 -5 6 3 10 9 15 12 12 3 -3 0
-11 -7 -18z m549 19 c0 -3 -4 -8 -10 -11 -5 -3 -10 -1 -10 4 0 6 5 11 10 11 6
0 10 -2 10 -4z m-4340 -21 c0 -9 -6 -12 -17 -8 -13 5 -15 2 -10 -11 4 -10 3
-15 -3 -11 -6 3 -10 1 -10 -6 0 -7 -3 -9 -7 -6 -9 10 18 57 34 57 7 0 13 -7
13 -15z m450 5 c0 -5 -2 -10 -4 -10 -3 0 -8 5 -11 10 -3 6 -1 10 4 10 6 0 11
-4 11 -10z m5913 -10 c-3 -11 -7 -20 -9 -20 -2 0 -4 9 -4 20 0 11 4 20 9 20 5
0 7 -9 4 -20z m707 16 c0 -3 -4 -8 -10 -11 -5 -3 -10 -1 -10 4 0 6 5 11 10 11
6 0 10 -2 10 -4z m172 -18 c-7 -7 -12 -8 -12 -2 0 14 12 26 19 19 2 -3 -1 -11
-7 -17z m-6635 -10 c-3 -8 -6 -5 -6 6 -1 11 2 17 5 13 3 -3 4 -12 1 -19z
m6786 10 c5 -14 -22 -73 -29 -65 -3 3 -2 21 1 41 7 36 20 47 28 24z m-7066 -4
c-3 -3 -12 -4 -19 -1 -8 3 -5 6 6 6 11 1 17 -2 13 -5z m5394 -30 c-5 -16 -10
-21 -10 -12 -1 18 10 51 15 45 2 -1 -1 -16 -5 -33z m-5451 16 c0 -5 7 -10 15
-10 22 0 18 -13 -11 -41 l-26 -24 13 27 c9 22 9 30 -1 43 -8 10 -9 15 -1 15 6
0 11 -4 11 -10z m158 -2 c-2 -6 -10 -14 -16 -16 -7 -2 -10 2 -6 12 7 18 28 22
22 4z m-255 -18 c-3 -12 -8 -19 -11 -16 -5 6 5 36 12 36 2 0 2 -9 -1 -20z
m350 -16 c-4 -25 -2 -39 8 -45 11 -7 9 -9 -8 -9 -20 0 -22 4 -17 33 7 41 12
57 18 57 3 0 2 -16 -1 -36z m-487 -17 c-3 -13 -12 -24 -21 -24 -19 0 -19 2 1
33 20 29 29 25 20 -9z m294 -18 c-16 -28 -22 -19 -14 21 6 25 9 29 16 16 5
-10 5 -24 -2 -37z m30 41 c0 -5 -4 -10 -10 -10 -5 0 -10 5 -10 10 0 6 5 10 10
10 6 0 10 -4 10 -10z m3789 3 c0 -5 -4 -17 -9 -28 -8 -18 -9 -17 -9 8 -1 15 4
27 9 27 6 0 10 -3 9 -7z m3261 -8 c0 -8 -4 -15 -10 -15 -5 0 -10 -11 -10 -25
0 -14 -7 -28 -15 -31 -20 -8 -19 -51 2 -62 14 -8 12 -12 -13 -28 -16 -10 -37
-25 -47 -33 -31 -26 -48 -23 -41 7 9 38 15 46 24 32 5 -8 8 3 7 25 l-1 37 -18
-22 -18 -22 2 25 c1 14 6 23 10 21 4 -3 8 2 8 11 0 11 5 15 15 11 11 -4 15 1
15 18 0 15 7 26 19 29 14 3 18 0 15 -17 -3 -15 -2 -16 3 -6 28 54 53 75 53 45z
m-7320 -11 c0 -8 -4 -12 -10 -9 -5 3 -10 10 -10 16 0 5 5 9 10 9 6 0 10 -7 10
-16z m577 10 c-3 -3 -12 -4 -19 -1 -8 3 -5 6 6 6 11 1 17 -2 13 -5z m-671 -54
c8 0 14 -7 14 -16 0 -8 -4 -12 -10 -9 -5 3 -10 4 -10 1 0 -2 -3 -12 -6 -21 -4
-10 -2 -15 6 -13 7 2 15 -3 17 -9 3 -7 -2 -13 -10 -13 -19 0 -27 22 -26 73 1
23 3 34 6 25 2 -10 11 -18 19 -18z m204 9 c0 -6 -4 -7 -10 -4 -5 3 -10 11 -10
16 0 6 5 7 10 4 6 -3 10 -11 10 -16z m-120 -20 c0 -6 -4 -7 -10 -4 -5 3 -10
11 -10 16 0 6 5 7 10 4 6 -3 10 -11 10 -16z m170 0 c0 -6 -4 -7 -10 -4 -5 3
-10 11 -10 16 0 6 5 7 10 4 6 -3 10 -11 10 -16z m-73 -11 c-3 -8 -6 -5 -6 6
-1 11 2 17 5 13 3 -3 4 -12 1 -19z m124 -25 c-10 -17 -10 -16 -11 3 0 23 13
41 18 25 2 -6 -1 -18 -7 -28z m5560 14 c-10 -9 -11 -8 -5 6 3 10 9 15 12 12 3
-3 0 -11 -7 -18z m-5476 3 c-3 -5 -13 -10 -21 -10 -8 0 -14 5 -14 10 0 6 9 10
21 10 11 0 17 -4 14 -10z m6015 6 c0 -3 -4 -8 -10 -11 -5 -3 -10 -1 -10 4 0 6
5 11 10 11 6 0 10 -2 10 -4z m-5923 -12 c-3 -3 -12 -4 -19 -1 -8 3 -5 6 6 6
11 1 17 -2 13 -5z m5293 2 c0 -3 -4 -8 -10 -11 -5 -3 -10 -1 -10 4 0 6 5 11
10 11 6 0 10 -2 10 -4z m1630 -5 c0 -12 -20 -25 -27 -18 -7 7 6 27 18 27 5 0
9 -4 9 -9z m-7310 -16 c-7 -9 -15 -13 -17 -11 -7 7 7 26 19 26 6 0 6 -6 -2
-15z m-156 -10 c-6 -16 -24 -21 -24 -7 0 11 11 22 21 22 5 0 6 -7 3 -15z m17
-26 l-10 -24 0 26 c-1 14 2 29 6 33 12 12 14 -9 4 -35z m254 13 c-7 -8 -35 7
-35 18 0 6 7 6 20 -2 10 -7 17 -14 15 -16z m55 18 c0 -5 -5 -10 -11 -10 -5 0
-7 5 -4 10 3 6 8 10 11 10 2 0 4 -4 4 -10z m272 -35 c-2 -14 -6 -25 -8 -25 -2
0 -4 11 -4 25 0 14 4 25 9 25 4 0 6 -11 3 -25z m5312 0 c-4 -8 -8 -15 -10 -15
-2 0 -4 7 -4 15 0 8 4 15 10 15 5 0 7 -7 4 -15z m-1084 -5 c0 -5 -5 -10 -11
-10 -5 0 -7 5 -4 10 3 6 8 10 11 10 2 0 4 -4 4 -10z m-4770 -10 c0 -5 -4 -10
-10 -10 -5 0 -10 5 -10 10 0 6 5 10 10 10 6 0 10 -4 10 -10z m5700 6 c0 -3 -4
-8 -10 -11 -5 -3 -10 -1 -10 4 0 6 5 11 10 11 6 0 10 -2 10 -4z m-5640 -27 c0
-14 -27 -10 -33 5 -4 10 0 12 14 9 10 -3 19 -9 19 -14z m196 -6 c-1 -16 -5
-33 -9 -40 -4 -6 -4 -18 -1 -27 3 -9 1 -16 -5 -16 -6 0 -11 -11 -11 -25 0 -14
-4 -25 -9 -25 -6 0 -6 13 0 33 4 17 10 53 11 79 2 27 8 48 14 48 7 0 11 -12
10 -27z m3039 17 c3 -5 1 -10 -4 -10 -6 0 -11 5 -11 10 0 6 2 10 4 10 3 0 8
-4 11 -10z m1882 -12 c-3 -8 -6 -5 -6 6 -1 11 2 17 5 13 3 -3 4 -12 1 -19z
m-4867 -5 c0 -10 -4 -14 -8 -8 -4 6 -11 13 -16 18 -5 4 -2 7 7 7 10 0 17 -8
17 -17z m75 8 c3 -5 1 -12 -5 -16 -5 -3 -10 1 -10 9 0 18 6 21 15 7z m58 -6
c-3 -9 -8 -14 -10 -11 -3 3 -2 9 2 15 9 16 15 13 8 -4z m5486 -35 c1 -13 0
-13 -9 0 -5 8 -9 24 -9 35 l0 20 9 -20 c5 -11 9 -27 9 -35z m558 18 c-3 -7 -5
-2 -5 12 0 14 2 19 5 13 2 -7 2 -19 0 -25z m-6310 0 c-3 -8 -6 -5 -6 6 -1 11
2 17 5 13 3 -3 4 -12 1 -19z m2672 -9 c-19 -12 -24 -2 -8 17 9 11 14 13 17 4
3 -7 -2 -16 -9 -21z m1946 21 c3 -5 1 -10 -4 -10 -6 0 -11 5 -11 10 0 6 2 10
4 10 3 0 8 -4 11 -10z m-4693 -12 c-9 -9 -7 -17 11 -36 20 -22 20 -24 2 -15
-11 6 -26 12 -33 14 -9 3 -9 9 3 27 9 12 19 22 23 22 3 0 1 -5 -6 -12z m-112
-2 c0 -3 -4 -8 -10 -11 -5 -3 -10 -1 -10 4 0 6 5 11 10 11 6 0 10 -2 10 -4z
m2277 -18 c-3 -8 -6 -5 -6 6 -1 11 2 17 5 13 3 -3 4 -12 1 -19z m-1957 8 c0
-2 -7 -6 -15 -10 -8 -3 -15 -1 -15 4 0 6 7 10 15 10 8 0 15 -2 15 -4z m50 -17
c0 -6 -4 -7 -10 -4 -5 3 -10 11 -10 16 0 6 5 7 10 4 6 -3 10 -11 10 -16z m230
17 c0 -2 -7 -6 -15 -10 -8 -3 -15 -1 -15 4 0 6 7 10 15 10 8 0 15 -2 15 -4z
m5166 -23 c-10 -10 -19 5 -10 18 6 11 8 11 12 0 2 -7 1 -15 -2 -18z m-5577 -5
c-1 -7 -5 -24 -9 -38 -7 -22 -8 -21 -9 13 -1 20 4 37 9 37 6 0 10 -6 9 -12z
m261 3 c0 -6 -4 -13 -10 -16 -5 -3 -10 1 -10 9 0 9 5 16 10 16 6 0 10 -4 10
-9z m4794 -7 c3 -8 2 -12 -4 -9 -6 3 -10 10 -10 16 0 14 7 11 14 -7z m-4493
-17 c-10 -9 -11 -8 -5 6 3 10 9 15 12 12 3 -3 0 -11 -7 -18z m4946 -24 c-3
-10 -5 -4 -5 12 0 17 2 24 5 18 2 -7 2 -21 0 -30z m1600 5 c-3 -7 -5 -2 -5 12
0 14 2 19 5 13 2 -7 2 -19 0 -25z m-7256 -11 c-8 -8 -11 -7 -11 4 0 20 13 34
18 19 3 -7 -1 -17 -7 -23z m459 23 c0 -5 -5 -10 -11 -10 -5 0 -7 5 -4 10 3 6
8 10 11 10 2 0 4 -4 4 -10z m5125 0 c3 -5 1 -10 -4 -10 -6 0 -11 5 -11 10 0 6
2 10 4 10 3 0 8 -4 11 -10z m322 -12 c-3 -8 -6 -5 -6 6 -1 11 2 17 5 13 3 -3
4 -12 1 -19z m-5995 -10 c-6 -6 -15 -8 -19 -4 -4 4 -1 11 7 16 19 12 27 3 12
-12z m148 12 c0 -5 -2 -10 -4 -10 -3 0 -8 5 -11 10 -3 6 -1 10 4 10 6 0 11 -4
11 -10z m237 -12 c-3 -8 -6 -5 -6 6 -1 11 2 17 5 13 3 -3 4 -12 1 -19z m270
-20 c-3 -8 -6 -5 -6 6 -1 11 2 17 5 13 3 -3 4 -12 1 -19z m83 2 c-6 -11 -13
-20 -16 -20 -2 0 0 9 6 20 6 11 13 20 16 20 2 0 0 -9 -6 -20z m2180 13 c0 -5
-5 -15 -10 -23 -8 -12 -10 -11 -10 8 0 12 5 22 10 22 6 0 10 -3 10 -7z m-2945
-32 c-19 -46 -19 -46 2 -28 28 25 40 21 15 -5 -11 -13 -26 -36 -32 -52 -15
-40 -23 -26 -25 42 -1 69 0 72 26 65 14 -4 18 -11 14 -22z m188 6 c3 -8 -1
-14 -8 -14 -7 0 -11 6 -8 14 3 7 6 13 8 13 2 0 5 -6 8 -13z m297 -7 c0 -13 -5
-18 -14 -14 -8 3 -12 12 -9 20 8 21 23 17 23 -6z m-405 -20 c-4 -12 -9 -19
-12 -17 -3 3 -2 15 2 27 4 12 9 19 12 17 3 -3 2 -15 -2 -27z m3595 21 c0 -6
-4 -13 -10 -16 -5 -3 -10 1 -10 9 0 9 5 16 10 16 6 0 10 -4 10 -9z m-3407 -34
c-7 -11 -23 2 -23 19 0 12 2 12 14 2 8 -7 12 -16 9 -21z m404 11 c-3 -8 -6 -5
-6 6 -1 11 2 17 5 13 3 -3 4 -12 1 -19z m6534 -1 c-10 -9 -11 -8 -5 6 3 10 9
15 12 12 3 -3 0 -11 -7 -18z m-4274 -39 c-2 -13 -4 -5 -4 17 -1 22 1 32 4 23
2 -10 2 -28 0 -40z m590 20 c-3 -7 -5 -2 -5 12 0 14 2 19 5 13 2 -7 2 -19 0
-25z m30 -15 c-3 -10 -5 -2 -5 17 0 19 2 27 5 18 2 -10 2 -26 0 -35z m-3134
16 c-6 -23 -33 -33 -33 -13 0 9 5 12 12 8 7 -5 9 -2 6 8 -4 8 -1 15 7 15 7 0
10 -8 8 -18z m29 -1 c-7 -7 -12 -8 -12 -2 0 14 12 26 19 19 2 -3 -1 -11 -7
-17z m6168 18 c0 -3 -4 -8 -10 -11 -5 -3 -10 -1 -10 4 0 6 5 11 10 11 6 0 10
-2 10 -4z m-6270 -16 c0 -5 -4 -10 -10 -10 -5 0 -10 5 -10 10 0 6 5 10 10 10
6 0 10 -4 10 -10z m-318 -32 c-7 -7 -12 -8 -12 -2 0 14 12 26 19 19 2 -3 -1
-11 -7 -17z m618 18 c0 -3 -4 -8 -10 -11 -5 -3 -10 -1 -10 4 0 6 5 11 10 11 6
0 10 -2 10 -4z m4057 -28 c-3 -7 -5 -2 -5 12 0 14 2 19 5 13 2 -7 2 -19 0 -25z
m113 -18 c-7 -22 -17 -40 -22 -40 -5 0 -4 9 2 21 7 11 9 28 5 36 -3 9 0 20 7
24 20 13 22 2 8 -41z m-4675 21 c-3 -6 -14 -11 -23 -11 -13 0 -13 2 4 14 21
15 30 14 19 -3z m75 3 c0 -8 -5 -12 -10 -9 -6 4 -8 11 -5 16 9 14 15 11 15 -7z
m2757 -6 c-3 -8 -6 -5 -6 6 -1 11 2 17 5 13 3 -3 4 -12 1 -19z m4400 0 c-3 -8
-6 -5 -6 6 -1 11 2 17 5 13 3 -3 4 -12 1 -19z m-7027 -23 c0 -5 -5 -3 -10 5
-5 8 -10 20 -10 25 0 6 5 3 10 -5 5 -8 10 -19 10 -25z m140 25 c0 -5 -5 -10
-11 -10 -5 0 -7 5 -4 10 3 6 8 10 11 10 2 0 4 -4 4 -10z m2627 -12 c-3 -8 -6
-5 -6 6 -1 11 2 17 5 13 3 -3 4 -12 1 -19z m449 -15 c-8 -15 -15 -25 -16 -21
0 12 23 58 27 54 3 -2 -2 -17 -11 -33z m-2936 17 c0 -5 -4 -10 -10 -10 -5 0
-10 5 -10 10 0 6 5 10 10 10 6 0 10 -4 10 -10z m2634 -5 c-4 -8 -8 -15 -10
-15 -2 0 -4 7 -4 15 0 8 4 15 10 15 5 0 7 -7 4 -15z m-3210 -3 c-6 -4 -14 -17
-18 -30 -4 -12 -12 -20 -17 -17 -11 7 19 55 35 55 8 0 8 -2 0 -8z m359 -17
c-3 -9 -8 -14 -10 -11 -3 3 -2 9 2 15 9 16 15 13 8 -4z m4277 -22 c-11 -17
-11 -17 -6 0 3 10 6 24 7 30 0 9 2 9 5 0 3 -7 0 -20 -6 -30z m-4530 18 c0 -5
-11 -11 -25 -13 -14 -3 -25 -3 -25 -1 0 3 34 19 48 22 1 1 2 -3 2 -8z m115 0
c3 -5 1 -12 -5 -16 -5 -3 -10 1 -10 9 0 18 6 21 15 7z m65 -20 c0 -6 -4 -13
-10 -16 -5 -3 -10 1 -10 9 0 9 5 16 10 16 6 0 10 -4 10 -9z m230 5 c0 -3 -4
-8 -10 -11 -5 -3 -10 -1 -10 4 0 6 5 11 10 11 6 0 10 -2 10 -4z m120 0 c0 -3
-4 -8 -10 -11 -5 -3 -10 -1 -10 4 0 6 5 11 10 11 6 0 10 -2 10 -4z m-105 -25
c-3 -6 -11 -11 -17 -11 -6 0 -6 6 2 15 14 17 26 13 15 -4z m1765 -3 c0 -6 -6
-5 -15 2 -8 7 -15 14 -15 16 0 2 7 1 15 -2 8 -4 15 -11 15 -16z m645 -28 c-9
-41 -17 -33 -9 9 4 17 9 30 11 27 3 -2 2 -19 -2 -36z m-2460 20 c3 -5 1 -10
-4 -10 -6 0 -11 5 -11 10 0 6 2 10 4 10 3 0 8 -4 11 -10z m2495 0 c0 -5 -5
-10 -11 -10 -5 0 -7 5 -4 10 3 6 8 10 11 10 2 0 4 -4 4 -10z m1740 6 c0 -3 -4
-8 -10 -11 -5 -3 -10 -1 -10 4 0 6 5 11 10 11 6 0 10 -2 10 -4z m34 -28 c-9
-14 -23 2 -17 18 4 12 8 13 14 3 4 -7 5 -17 3 -21z m-4784 14 c0 -16 -28 -47
-36 -39 -4 4 -2 7 5 7 7 0 9 5 6 10 -3 6 -3 15 0 20 7 12 25 13 25 2z m7385
-2 c3 -5 0 -19 -8 -30 -14 -21 -14 -21 -20 1 -9 33 12 55 28 29z m-7196 -27
c0 -25 -1 -26 -9 -8 -12 27 -12 35 0 35 6 0 10 -12 9 -27z m61 7 c0 -5 -4 -10
-10 -10 -5 0 -10 5 -10 10 0 6 5 10 10 10 6 0 10 -4 10 -10z m35 0 c3 -5 1
-10 -4 -10 -6 0 -11 5 -11 10 0 6 2 10 4 10 3 0 8 -4 11 -10z m6072 -12 c-3
-8 -6 -5 -6 6 -1 11 2 17 5 13 3 -3 4 -12 1 -19z m-6247 8 c0 -2 -7 -7 -16
-10 -8 -3 -12 -2 -9 4 6 10 25 14 25 6z m7360 -11 c0 -8 -5 -15 -11 -15 -6 0
-9 -6 -6 -14 3 -8 -3 -22 -14 -32 -10 -9 -19 -23 -19 -31 0 -7 -5 -13 -11 -13
-7 0 -8 7 -4 18 5 9 9 26 10 37 4 44 55 91 55 50z m-7500 -31 c0 -2 -7 -4 -15
-4 -8 0 -15 4 -15 10 0 5 7 7 15 4 8 -4 15 -8 15 -10z m214 -16 c-4 -6 -10 -5
-15 3 -14 22 -10 33 6 19 8 -7 12 -17 9 -22z m216 23 c0 -12 -28 -22 -34 -12
-3 5 -3 11 1 15 9 9 33 7 33 -3z m2540 5 c0 -3 -4 -8 -10 -11 -5 -3 -10 -1
-10 4 0 6 5 11 10 11 6 0 10 -2 10 -4z m540 -11 c0 -8 -4 -15 -10 -15 -5 0
-10 7 -10 15 0 8 5 15 10 15 6 0 10 -7 10 -15z m3707 -7 c-3 -8 -6 -5 -6 6 -1
11 2 17 5 13 3 -3 4 -12 1 -19z m-6684 5 c-7 -2 -19 -2 -25 0 -7 3 -2 5 12 5
14 0 19 -2 13 -5z m2673 -19 c-21 -20 -28 -17 -14 5 7 11 16 17 20 15 5 -3 2
-12 -6 -20z m1501 4 c-3 -8 -6 -5 -6 6 -1 11 2 17 5 13 3 -3 4 -12 1 -19z
m2708 -47 c-3 -2 -5 1 -5 8 0 7 -5 9 -12 5 -8 -5 -9 -2 -5 10 4 10 7 23 8 29
0 7 5 -1 10 -17 4 -17 6 -32 4 -35z m125 55 c0 -3 -4 -8 -10 -11 -5 -3 -10 -1
-10 4 0 6 5 11 10 11 6 0 10 -2 10 -4z m-4598 -48 c-6 -6 -7 0 -4 19 5 21 7
23 10 9 2 -10 0 -22 -6 -28z m-2787 22 c3 -5 1 -10 -4 -10 -6 0 -11 5 -11 10
0 6 2 10 4 10 3 0 8 -4 11 -10z m280 0 c-3 -5 -11 -10 -16 -10 -6 0 -7 5 -4
10 3 6 11 10 16 10 6 0 7 -4 4 -10z m-451 -15 c-5 -11 -2 -13 10 -9 11 4 16 1
16 -10 0 -21 -26 -21 -34 0 -9 23 -7 34 4 34 5 0 7 -7 4 -15z m7503 -14 c-1
-17 -6 -26 -10 -21 -8 7 -1 50 8 50 2 0 3 -13 2 -29z m-7266 -8 c3 -57 -15
-93 -35 -73 -7 7 -6 14 2 22 7 7 12 27 12 45 0 40 19 45 21 6z m4496 -5 c-3
-7 -5 -2 -5 12 0 14 2 19 5 13 2 -7 2 -19 0 -25z m2553 22 c0 -5 -4 -10 -10
-10 -5 0 -10 5 -10 10 0 6 5 10 10 10 6 0 10 -4 10 -10z m-7150 -16 c0 -10 -6
-14 -14 -11 -7 3 -18 1 -24 -5 -8 -8 -9 -5 -5 11 6 25 43 29 43 5z m160 2 c0
-8 -4 -18 -10 -21 -5 -3 -10 3 -10 14 0 12 5 21 10 21 6 0 10 -6 10 -14z
m2700 6 c0 -5 -7 -17 -15 -28 -14 -18 -14 -17 -4 9 12 27 19 34 19 19z m351
-6 c5 3 9 0 9 -6 0 -15 -23 -7 -26 8 -1 7 0 8 3 2 2 -5 9 -8 14 -4z m191 -8
c-7 -7 -12 -8 -12 -2 0 14 12 26 19 19 2 -3 -1 -11 -7 -17z m3056 -13 c1 -19
-3 -37 -8 -40 -11 -7 -14 34 -4 59 9 23 11 20 12 -19z m662 20 c0 -8 -4 -15
-10 -15 -5 0 -7 7 -4 15 4 8 8 15 10 15 2 0 4 -7 4 -15z m-3123 -27 c-3 -7 -5
-2 -5 12 0 14 2 19 5 13 2 -7 2 -19 0 -25z m3397 16 c3 -8 2 -12 -4 -9 -6 3
-10 10 -10 16 0 14 7 11 14 -7z m-7359 -4 c3 -5 1 -10 -4 -10 -6 0 -11 5 -11
10 0 6 2 10 4 10 3 0 8 -4 11 -10z m148 -5 c-3 -9 -8 -14 -10 -11 -3 3 -2 9 2
15 9 16 15 13 8 -4z m267 5 c0 -5 -4 -10 -10 -10 -5 0 -10 5 -10 10 0 6 5 10
10 10 6 0 10 -4 10 -10z m6830 -19 c-5 -18 -4 -33 2 -39 6 -6 7 -16 2 -23 -5
-9 -10 -4 -16 16 -8 31 -1 75 12 75 5 0 5 -13 0 -29z m-7030 9 c-8 -5 -19 -10
-25 -10 -5 0 -3 5 5 10 8 5 20 10 25 10 6 0 3 -5 -5 -10z m3070 6 c0 -11 -19
-15 -25 -6 -3 5 1 10 9 10 9 0 16 -2 16 -4z m-3390 -10 c0 -3 -4 -8 -10 -11
-5 -3 -10 -1 -10 4 0 6 5 11 10 11 6 0 10 -2 10 -4z m-40 -10 c0 -2 -7 -6 -15
-10 -8 -3 -15 -1 -15 4 0 6 7 10 15 10 8 0 15 -2 15 -4z m90 -15 c0 -5 -7 -14
-15 -21 -9 -7 -14 -19 -11 -27 3 -7 1 -13 -4 -13 -6 0 -10 -5 -10 -10 0 -6 -5
-16 -10 -23 -6 -7 -19 -23 -30 -35 -26 -33 -60 -22 -60 19 0 33 15 37 42 12
11 -9 18 -11 18 -5 0 7 -4 12 -10 12 -5 0 -10 5 -10 11 0 6 7 9 15 5 21 -8 47
22 39 46 -4 14 -2 18 5 14 6 -4 11 0 11 8 0 9 7 16 15 16 8 0 15 -4 15 -9z
m7385 -1 c3 -5 1 -10 -4 -10 -6 0 -11 5 -11 10 0 6 2 10 4 10 3 0 8 -4 11 -10z
m-7476 -27 c21 -3 34 -20 22 -27 -6 -4 -11 -2 -11 3 0 6 -7 11 -15 11 -8 0
-15 -4 -15 -10 0 -5 -4 -10 -10 -10 -5 0 -10 12 -10 26 0 18 4 23 13 17 6 -4
18 -8 26 -10z m2382 -16 c-8 -8 -11 -7 -11 4 0 20 13 34 18 19 3 -7 -1 -17 -7
-23z m1269 23 c0 -5 -4 -10 -10 -10 -5 0 -10 5 -10 10 0 6 5 10 10 10 6 0 10
-4 10 -10z m3810 -39 c-6 -12 -15 -19 -21 -15 -7 4 -6 10 1 19 6 7 7 21 4 31
-6 18 -6 18 11 3 14 -14 15 -21 5 -38z m-4091 -25 c-9 -8 -10 -7 -5 7 3 10 7
26 7 35 1 9 4 6 6 -7 3 -13 -1 -28 -8 -35z m1398 32 c-3 -8 -6 -5 -6 6 -1 11
2 17 5 13 3 -3 4 -12 1 -19z m-620 -30 c-3 -7 -5 -2 -5 12 0 14 2 19 5 13 2
-7 2 -19 0 -25z m3265 7 c4 -16 -2 -30 -15 -42 -19 -18 -20 -17 -8 4 6 12 11
31 11 42 0 29 7 26 12 -4z m-802 1 c0 -3 -4 -8 -10 -11 -5 -3 -10 -1 -10 4 0
6 5 11 10 11 6 0 10 -2 10 -4z m776 -22 c-4 -9 -9 -15 -11 -12 -3 3 -3 13 1
22 4 9 9 15 11 12 3 -3 3 -13 -1 -22z m-7319 -16 c-3 -8 -6 -5 -6 6 -1 11 2
17 5 13 3 -3 4 -12 1 -19z m7187 7 c-4 -8 -8 -15 -10 -15 -2 0 -4 7 -4 15 0 8
4 15 10 15 5 0 7 -7 4 -15z m286 11 c0 -3 -4 -8 -10 -11 -5 -3 -10 -1 -10 4 0
6 5 11 10 11 6 0 10 -2 10 -4z m-1010 -25 c0 -11 -4 -23 -10 -26 -6 -4 -10 5
-10 19 0 14 5 26 10 26 6 0 10 -9 10 -19z m-6355 -7 c13 -5 14 -8 3 -15 -19
-13 -28 -11 -28 6 0 17 2 18 25 9z m3855 -14 c0 -5 -4 -10 -10 -10 -5 0 -10 5
-10 10 0 6 5 10 10 10 6 0 10 -4 10 -10z m707 -32 c-3 -8 -6 -5 -6 6 -1 11 2
17 5 13 3 -3 4 -12 1 -19z m-4726 -5 c10 3 19 1 19 -5 0 -5 5 -6 10 -3 6 3 10
2 10 -3 0 -13 -27 -23 -44 -16 -8 3 -17 1 -21 -5 -3 -6 -13 -11 -22 -11 -14 0
-13 3 3 21 12 13 14 19 5 17 -7 -2 -16 3 -18 10 -4 11 -1 12 17 2 12 -6 31
-10 41 -7z m194 -1 c-3 -3 -11 0 -18 7 -9 10 -8 11 6 5 10 -3 15 -9 12 -12z
m6232 -4 c-3 -8 -6 -5 -6 6 -1 11 2 17 5 13 3 -3 4 -12 1 -19z m-6297 -12 c0
-2 -7 -6 -15 -10 -8 -3 -15 -1 -15 4 0 6 7 10 15 10 8 0 15 -2 15 -4z m56 -6
c8 0 14 -7 14 -15 0 -8 -4 -15 -10 -15 -5 0 -10 5 -10 10 0 6 -9 10 -20 10
-11 0 -20 5 -20 11 0 6 7 8 16 5 9 -3 22 -6 30 -6z m3751 -12 c-3 -8 -6 -5 -6
6 -1 11 2 17 5 13 3 -3 4 -12 1 -19z m790 -10 c-3 -8 -6 -5 -6 6 -1 11 2 17 5
13 3 -3 4 -12 1 -19z m-4422 2 c-3 -5 -11 -10 -16 -10 -6 0 -7 5 -4 10 3 6 11
10 16 10 6 0 7 -4 4 -10z m4372 -12 c-3 -8 -6 -5 -6 6 -1 11 2 17 5 13 3 -3 4
-12 1 -19z m-1315 -20 c-7 -7 -12 -8 -12 -2 0 14 12 26 19 19 2 -3 -1 -11 -7
-17z m-3382 -4 c0 -2 -7 -4 -15 -4 -8 0 -15 4 -15 10 0 5 7 7 15 4 8 -4 15 -8
15 -10z m215 -19 c0 -14 -2 -25 -6 -25 -9 0 -17 32 -11 48 6 19 15 6 17 -23z
m4522 -12 c-3 -10 -5 -4 -5 12 0 17 2 24 5 18 2 -7 2 -21 0 -30z m1683 22 c0
-8 -4 -15 -10 -15 -5 0 -10 7 -10 15 0 8 5 15 10 15 6 0 10 -7 10 -15z m-30
-11 c0 -8 -5 -12 -10 -9 -6 4 -8 11 -5 16 9 14 15 11 15 -7z m-6372 -24 c6 0
12 -5 12 -10 0 -12 -50 -2 -65 13 -7 6 -2 8 15 3 14 -3 31 -6 38 -6z m4519
-37 c-3 -10 -5 -4 -5 12 0 17 2 24 5 18 2 -7 2 -21 0 -30z m-4318 -78 c-1 -53
-5 -83 -11 -79 -9 6 -9 139 -1 157 10 19 13 1 12 -78z m4248 63 c-3 -8 -6 -5
-6 6 -1 11 2 17 5 13 3 -3 4 -12 1 -19z m1950 0 c-3 -8 -6 -5 -6 6 -1 11 2 17
5 13 3 -3 4 -12 1 -19z m-6437 2 c0 -5 -4 -10 -10 -10 -5 0 -10 5 -10 10 0 6
5 10 10 10 6 0 10 -4 10 -10z m43 -4 c3 -8 -1 -17 -10 -20 -20 -8 -25 -3 -17
18 8 20 20 21 27 2z m4578 -9 c-10 -9 -11 -8 -5 6 3 10 9 15 12 12 3 -3 0 -11
-7 -18z m99 3 c0 -5 -5 -10 -11 -10 -5 0 -7 5 -4 10 3 6 8 10 11 10 2 0 4 -4
4 -10z m2816 -35 c-1 -14 -11 -34 -21 -45 -22 -24 -9 -27 17 -3 16 15 18 15
18 0 0 -23 -35 -40 -48 -24 -7 8 -6 18 4 31 19 27 19 67 -1 60 -11 -5 -13 -2
-9 10 10 25 43 2 40 -29z m-1669 13 c-3 -8 -6 -5 -6 6 -1 11 2 17 5 13 3 -3 4
-12 1 -19z m557 -23 c3 -8 1 -15 -4 -15 -6 0 -10 7 -10 15 0 8 2 15 4 15 2 0
6 -7 10 -15z m-6387 -11 c-3 -3 -12 -4 -19 -1 -8 3 -5 6 6 6 11 1 17 -2 13 -5z
m283 2 c0 -3 -4 -8 -10 -11 -5 -3 -10 -1 -10 4 0 6 5 11 10 11 6 0 10 -2 10
-4z m4207 -18 c-3 -8 -6 -5 -6 6 -1 11 2 17 5 13 3 -3 4 -12 1 -19z m2918 13
c3 -5 1 -12 -5 -16 -5 -3 -10 1 -10 9 0 18 6 21 15 7z m-7424 -54 c-1 -12 -15
-9 -19 4 -3 6 1 10 8 8 6 -3 11 -8 11 -12z m5286 -9 c-3 -8 -6 -5 -6 6 -1 11
2 17 5 13 3 -3 4 -12 1 -19z m2165 -10 c-8 -8 -9 -4 -5 13 4 13 8 18 11 10 2
-7 -1 -18 -6 -23z m103 23 c3 -5 1 -12 -5 -16 -5 -3 -10 1 -10 9 0 18 6 21 15
7z m-2818 -48 c-3 -10 -5 -2 -5 17 0 19 2 27 5 18 2 -10 2 -26 0 -35z m-162
28 c3 -5 1 -12 -5 -16 -5 -3 -10 1 -10 9 0 18 6 21 15 7z m1632 -23 c-3 -8 -6
-5 -6 6 -1 11 2 17 5 13 3 -3 4 -12 1 -19z m968 12 c3 -5 1 -10 -4 -10 -6 0
-11 5 -11 10 0 6 2 10 4 10 3 0 8 -4 11 -10z m-6967 -26 c14 -15 14 -16 -3
-13 -10 2 -20 10 -23 17 -5 17 6 15 26 -4z m7244 -11 c-5 -29 -22 -41 -22 -16
0 15 -2 16 -11 3 -9 -12 -10 -12 -5 3 3 10 6 22 6 26 0 4 8 7 18 7 14 0 17 -6
14 -23z m-5301 -6 c-10 -9 -11 -8 -5 6 3 10 9 15 12 12 3 -3 0 -11 -7 -18z
m5375 -4 c-7 -7 -26 7 -26 19 0 6 6 6 15 -2 9 -7 13 -15 11 -17z m-2256 8 c0
-6 -4 -13 -10 -16 -5 -3 -10 1 -10 9 0 9 5 16 10 16 6 0 10 -4 10 -9z m-5263
-7 c-3 -3 -12 -4 -19 -1 -8 3 -5 6 6 6 11 1 17 -2 13 -5z m6273 -4 c0 -5 -2
-10 -4 -10 -3 0 -8 5 -11 10 -3 6 -1 10 4 10 6 0 11 -4 11 -10z m-6060 -41 c0
-17 -4 -28 -10 -24 -5 3 -10 17 -10 31 0 13 5 24 10 24 6 0 10 -14 10 -31z
m5647 9 c-3 -8 -6 -5 -6 6 -1 11 2 17 5 13 3 -3 4 -12 1 -19z m1648 1 c-10
-15 -25 -10 -19 6 4 8 10 12 15 9 5 -3 7 -10 4 -15z m-7505 -5 c0 -2 -7 -4
-15 -4 -8 0 -15 4 -15 10 0 5 7 7 15 4 8 -4 15 -8 15 -10z m3537 -16 c-3 -8
-6 -5 -6 6 -1 11 2 17 5 13 3 -3 4 -12 1 -19z m1720 0 c-3 -8 -6 -5 -6 6 -1
11 2 17 5 13 3 -3 4 -12 1 -19z m2193 -5 c0 -22 -2 -25 -10 -13 -13 20 -13 40
0 40 6 0 10 -12 10 -27z m50 -3 c0 -5 -4 -10 -10 -10 -5 0 -10 5 -10 10 0 6 5
10 10 10 6 0 10 -4 10 -10z m-5143 -32 c-3 -7 -5 -2 -5 12 0 14 2 19 5 13 2
-7 2 -19 0 -25z m5064 20 c2 -21 -2 -42 -9 -50 -4 -4 -7 9 -7 28 0 31 14 50
16 22z m-1523 -23 c-3 -3 -9 2 -12 12 -6 14 -5 15 5 6 7 -7 10 -15 7 -18z
m-5428 11 c0 -3 -4 -8 -10 -11 -5 -3 -10 -1 -10 4 0 6 5 11 10 11 6 0 10 -2
10 -4z m4700 -6 c0 -5 -4 -10 -10 -10 -5 0 -10 5 -10 10 0 6 5 10 10 10 6 0
10 -4 10 -10z m-4960 -21 c0 -5 -4 -9 -10 -9 -5 0 -10 7 -10 16 0 8 5 12 10 9
6 -3 10 -10 10 -16z m7240 6 c0 -8 -4 -15 -10 -15 -5 0 -7 7 -4 15 4 8 8 15
10 15 2 0 4 -7 4 -15z m-3920 -5 c0 -5 -5 -10 -11 -10 -5 0 -7 -4 -4 -10 3 -5
1 -10 -4 -10 -6 0 -11 9 -11 20 0 11 7 20 15 20 8 0 15 -4 15 -10z m595 0 c3
-5 1 -10 -4 -10 -6 0 -11 5 -11 10 0 6 2 10 4 10 3 0 8 -4 11 -10z m3398 -4
c7 -17 -18 -42 -27 -27 -7 11 3 41 14 41 4 0 10 -6 13 -14z m-7383 -5 c0 -5
-12 -8 -26 -8 -18 0 -22 2 -13 8 18 11 39 11 39 0z m243 2 c-7 -2 -19 -2 -25
0 -7 3 -2 5 12 5 14 0 19 -2 13 -5z m4253 -30 c-11 -11 -17 4 -9 23 7 18 8 18
11 1 2 -10 1 -21 -2 -24z m664 -1 c0 -7 -4 -10 -10 -7 -5 3 -10 16 -10 28 0
18 2 19 10 7 5 -8 10 -21 10 -28z m550 18 c0 -5 -4 -10 -10 -10 -5 0 -10 5
-10 10 0 6 5 10 10 10 6 0 10 -4 10 -10z m-5420 -4 c0 -3 -4 -8 -10 -11 -5 -3
-10 -1 -10 4 0 6 5 11 10 11 6 0 10 -2 10 -4z m2651 -19 c-10 -9 -11 -8 -5 6
3 10 9 15 12 12 3 -3 0 -11 -7 -18z m4380 -2 c12 8 11 -6 -1 -25 -5 -9 -5 -19
1 -26 6 -8 6 -14 0 -18 -5 -3 -7 -16 -4 -29 3 -12 3 -19 -1 -16 -3 3 -8 23
-10 45 -2 21 -5 44 -6 49 -1 6 -1 19 0 30 2 17 3 18 7 2 2 -9 9 -15 14 -12z
m-7251 -17 c0 -26 -22 -18 -26 10 -3 15 0 20 11 16 8 -4 15 -15 15 -26z m2557
-20 c-3 -8 -6 -5 -6 6 -1 11 2 17 5 13 3 -3 4 -12 1 -19z m4610 0 c-3 -8 -6
-5 -6 6 -1 11 2 17 5 13 3 -3 4 -12 1 -19z m47 -18 c-6 -5 -24 21 -24 34 0 6
6 1 14 -10 8 -10 12 -21 10 -24z m-3274 14 c0 -8 -4 -12 -10 -9 -5 3 -10 10
-10 16 0 5 5 9 10 9 6 0 10 -7 10 -16z m-3740 -24 c0 -5 -5 -10 -11 -10 -5 0
-7 5 -4 10 3 6 8 10 11 10 2 0 4 -4 4 -10z m160 6 c0 -3 -4 -8 -10 -11 -5 -3
-10 -1 -10 4 0 6 5 11 10 11 6 0 10 -2 10 -4z m-370 -76 c-8 -50 -10 -47 -15
23 -2 40 0 46 10 35 9 -9 11 -26 5 -58z m5251 27 c-13 -13 -15 1 -4 30 7 17 8
17 11 -1 2 -10 -1 -23 -7 -29z m1936 -14 c-3 -10 -5 -4 -5 12 0 17 2 24 5 18
2 -7 2 -21 0 -30z m-257 -3 c0 -5 -4 -10 -10 -10 -5 0 -10 5 -10 10 0 6 5 10
10 10 6 0 10 -4 10 -10z m277 -12 c-3 -8 -6 -5 -6 6 -1 11 2 17 5 13 3 -3 4
-12 1 -19z m-5337 8 c0 -3 -4 -8 -10 -11 -5 -3 -10 -1 -10 4 0 6 5 11 10 11 6
0 10 -2 10 -4z m3260 -21 c0 -8 -4 -15 -10 -15 -5 0 -10 7 -10 15 0 8 5 15 10
15 6 0 10 -7 10 -15z m954 0 c3 -8 1 -15 -4 -15 -6 0 -10 7 -10 15 0 8 2 15 4
15 2 0 6 -7 10 -15z m1153 -41 c-5 -28 -3 -32 11 -26 15 5 15 4 -1 -12 -10
-10 -20 -16 -23 -13 -9 8 -13 60 -8 80 9 30 26 6 21 -29z m-2720 -6 c-3 -8 -6
-5 -6 6 -1 11 2 17 5 13 3 -3 4 -12 1 -19z m735 -20 c-6 -6 -7 0 -4 19 5 21 7
23 10 9 2 -10 0 -22 -6 -28z m1058 33 c0 -6 -4 -13 -10 -16 -5 -3 -10 1 -10 9
0 9 5 16 10 16 6 0 10 -4 10 -9z m-1180 -11 c0 -5 -5 -10 -11 -10 -5 0 -7 5
-4 10 3 6 8 10 11 10 2 0 4 -4 4 -10z m-5130 -30 c0 -5 -4 -10 -10 -10 -5 0
-10 5 -10 10 0 6 5 10 10 10 6 0 10 -4 10 -10z m2621 -43 c-13 -13 -15 11 -4
40 7 16 8 15 11 -6 2 -13 -1 -28 -7 -34z m1326 21 c-3 -8 -6 -5 -6 6 -1 11 2
17 5 13 3 -3 4 -12 1 -19z m1400 0 c-3 -8 -6 -5 -6 6 -1 11 2 17 5 13 3 -3 4
-12 1 -19z m1816 -30 c3 -10 2 -20 -2 -23 -7 -4 -31 44 -31 62 0 9 26 -23 33
-39z m-2166 10 c-3 -8 -6 -5 -6 6 -1 11 2 17 5 13 3 -3 4 -12 1 -19z m163 7
c0 -8 -4 -15 -10 -15 -5 0 -10 7 -10 15 0 8 5 15 10 15 6 0 10 -7 10 -15z
m-5157 -38 c-4 -6 -5 -33 -4 -60 1 -30 -2 -47 -8 -43 -5 4 -9 39 -9 78 1 62 3
69 14 53 7 -10 10 -23 7 -28z m7222 33 c-3 -5 -1 -19 5 -30 8 -16 8 -18 -4
-14 -18 7 -27 42 -12 48 17 7 18 7 11 -4z m32 -12 c-3 -8 -6 -5 -6 6 -1 11 2
17 5 13 3 -3 4 -12 1 -19z m-744 -8 c3 -11 1 -20 -4 -20 -5 0 -9 9 -9 20 0 11
2 20 4 20 2 0 6 -9 9 -20z m-2566 -22 c-3 -7 -5 -2 -5 12 0 14 2 19 5 13 2 -7
2 -19 0 -25z m-742 -8 c-4 -12 -9 -19 -12 -17 -3 3 -2 15 2 27 4 12 9 19 12
17 3 -3 2 -15 -2 -27z m75 20 c0 -5 -4 -10 -10 -10 -5 0 -10 5 -10 10 0 6 5
10 10 10 6 0 10 -4 10 -10z m2980 -20 c0 -5 -4 -10 -10 -10 -5 0 -10 5 -10 10
0 6 5 10 10 10 6 0 10 -4 10 -10z m759 -55 c0 -5 -6 1 -14 15 -8 14 -14 30
-14 35 0 6 6 -1 14 -15 8 -14 14 -29 14 -35z m76 45 c3 -5 1 -10 -4 -10 -6 0
-11 5 -11 10 0 6 2 10 4 10 3 0 8 -4 11 -10z m85 -11 c0 -5 -4 -9 -10 -9 -5 0
-10 7 -10 16 0 8 5 12 10 9 6 -3 10 -10 10 -16z m-4562 -35 c0 -19 -3 -33 -6
-29 -8 8 -12 38 -7 53 8 22 13 13 13 -24z m3419 4 c-3 -7 -5 -2 -5 12 0 14 2
19 5 13 2 -7 2 -19 0 -25z m1320 10 c-3 -8 -6 -5 -6 6 -1 11 2 17 5 13 3 -3 4
-12 1 -19z m-2256 -15 c-12 -20 -14 -14 -5 12 4 9 9 14 11 11 3 -2 0 -13 -6
-23z m770 4 c-10 -9 -11 -8 -5 6 3 10 9 15 12 12 3 -3 0 -11 -7 -18z m372 3
c3 -11 1 -18 -4 -14 -5 3 -9 12 -9 20 0 20 7 17 13 -6z m957 1 c0 -5 -7 -12
-16 -15 -14 -5 -15 -4 -4 9 14 17 20 19 20 6z m-1043 -33 c-3 -7 -5 -2 -5 12
0 14 2 19 5 13 2 -7 2 -19 0 -25z m233 18 c0 -3 -4 -8 -10 -11 -5 -3 -10 -1
-10 4 0 6 5 11 10 11 6 0 10 -2 10 -4z m570 -23 c0 -13 -3 -13 -15 -3 -8 7
-15 16 -15 21 0 5 7 6 15 3 8 -4 15 -13 15 -21z m58 4 c6 -7 14 -33 17 -58 3
-24 8 -52 11 -62 4 -11 1 -17 -8 -15 -7 2 -12 -5 -11 -15 0 -10 -1 -16 -4 -13
-3 3 -6 38 -7 77 -1 58 -5 73 -20 85 -16 11 -17 14 -4 14 8 0 20 -6 26 -13z
m72 -25 c0 -7 -4 -10 -10 -7 -5 3 -10 16 -10 28 0 18 2 19 10 7 5 -8 10 -21
10 -28z m70 18 c0 -5 -2 -10 -4 -10 -3 0 -8 5 -11 10 -3 6 -1 10 4 10 6 0 11
-4 11 -10z m-2180 -15 c0 -8 -4 -15 -10 -15 -5 0 -7 7 -4 15 4 8 8 15 10 15 2
0 4 -7 4 -15z m2360 -34 c-7 -17 -16 -31 -21 -31 -13 0 -11 18 2 22 6 2 12 16
12 32 0 19 3 24 10 17 7 -7 6 -20 -3 -40z m-7340 8 c0 -17 -4 -28 -10 -24 -11
7 -9 55 2 55 4 0 8 -14 8 -31z m6167 9 c-3 -8 -6 -5 -6 6 -1 11 2 17 5 13 3
-3 4 -12 1 -19z m703 18 c0 -3 -4 -8 -10 -11 -5 -3 -10 -1 -10 4 0 6 5 11 10
11 6 0 10 -2 10 -4z m-1779 -29 c-10 -9 -11 -8 -5 6 3 10 9 15 12 12 3 -3 0
-11 -7 -18z m1879 13 c0 -5 -5 -10 -11 -10 -5 0 -7 5 -4 10 3 6 8 10 11 10 2
0 4 -4 4 -10z m210 -17 c0 -10 6 -13 18 -8 14 5 15 4 4 -7 -11 -11 -16 -10
-28 6 -16 23 -19 40 -4 31 6 -3 10 -13 10 -22z m-944 -20 c-11 -11 -19 6 -11
24 8 17 8 17 12 0 3 -10 2 -21 -1 -24z m-3079 5 c-3 -8 -6 -5 -6 6 -1 11 2 17
5 13 3 -3 4 -12 1 -19z m2900 0 c-3 -8 -6 -5 -6 6 -1 11 2 17 5 13 3 -3 4 -12
1 -19z m-1080 -25 c-3 -10 -5 -4 -5 12 0 17 2 24 5 18 2 -7 2 -21 0 -30z
m1122 -3 c0 -10 -3 -8 -9 5 -12 27 -12 43 0 25 5 -8 9 -22 9 -30z m788 18 c-3
-8 -6 -5 -6 6 -1 11 2 17 5 13 3 -3 4 -12 1 -19z m223 -4 c0 -8 -4 -12 -10 -9
-5 3 -10 10 -10 16 0 5 5 9 10 9 6 0 10 -7 10 -16z m-1836 -9 c3 -8 1 -15 -4
-15 -6 0 -10 7 -10 15 0 8 2 15 4 15 2 0 6 -7 10 -15z m1723 -7 c-3 -8 -6 -5
-6 6 -1 11 2 17 5 13 3 -3 4 -12 1 -19z m-1640 -20 c-3 -8 -6 -5 -6 6 -1 11 2
17 5 13 3 -3 4 -12 1 -19z m890 0 c-3 -8 -6 -5 -6 6 -1 11 2 17 5 13 3 -3 4
-12 1 -19z m1109 -4 c4 -15 2 -30 -6 -37 -10 -9 -11 -7 -5 11 4 13 2 29 -5 37
-9 10 -9 15 -1 15 6 0 14 -12 17 -26z m-2329 -6 c-3 -8 -6 -5 -6 6 -1 11 2 17
5 13 3 -3 4 -12 1 -19z m1033 14 c0 -4 -9 -8 -20 -9 -11 -1 -18 2 -15 8 7 11
35 12 35 1z m-2903 -24 c-3 -8 -6 -5 -6 6 -1 11 2 17 5 13 3 -3 4 -12 1 -19z
m3768 12 c3 -5 1 -10 -4 -10 -6 0 -11 5 -11 10 0 6 2 10 4 10 3 0 8 -4 11 -10z
m-6925 -51 c0 -24 -4 -38 -10 -34 -5 3 -10 24 -10 46 0 24 4 38 10 34 6 -3 10
-24 10 -46z m5900 13 c0 -15 -2 -15 -10 -2 -13 20 -13 33 0 25 6 -3 10 -14 10
-23z m131 1 l1 -28 7 25 c6 23 7 24 15 5 5 -14 2 -23 -11 -33 -16 -11 -19 -10
-25 10 -9 35 -9 48 2 48 6 0 10 -12 11 -27z m221 2 c3 -14 1 -28 -3 -31 -5 -3
-9 9 -9 25 0 38 6 40 12 6z m-52 -6 c0 -5 -4 -9 -10 -9 -5 0 -10 7 -10 16 0 8
5 12 10 9 6 -3 10 -10 10 -16z m720 -5 c0 -8 -5 -12 -10 -9 -6 4 -8 11 -5 16
9 14 15 11 15 -7z m254 -10 c3 -8 2 -12 -4 -9 -6 3 -10 10 -10 16 0 14 7 11
14 -7z m53 -6 c-3 -8 -6 -5 -6 6 -1 11 2 17 5 13 3 -3 4 -12 1 -19z m-1107
-28 c0 -16 0 -33 1 -37 0 -4 -4 -9 -10 -11 -6 -2 -9 13 -8 37 1 47 17 56 17
11z m74 14 c9 -24 2 -26 -12 -4 -7 11 -8 20 -3 20 5 0 12 -7 15 -16z m-2857
-26 c-3 -8 -6 -5 -6 6 -1 11 2 17 5 13 3 -3 4 -12 1 -19z m3883 -9 c0 -6 -4
-7 -10 -4 -5 3 -10 11 -10 16 0 6 5 7 10 4 6 -3 10 -11 10 -16z m-7228 -14 c3
-14 1 -25 -3 -25 -5 0 -9 11 -9 25 0 14 2 25 4 25 2 0 6 -11 8 -25z m3245 3
c-3 -8 -6 -5 -6 6 -1 11 2 17 5 13 3 -3 4 -12 1 -19z m2790 0 c-3 -8 -6 -5 -6
6 -1 11 2 17 5 13 3 -3 4 -12 1 -19z m26 -15 c4 -19 2 -33 -3 -33 -6 0 -10 17
-10 37 0 43 5 41 13 -4z m934 0 c-3 -10 -5 -4 -5 12 0 17 2 24 5 18 2 -7 2
-21 0 -30z m-2080 -5 c-3 -7 -5 -2 -5 12 0 14 2 19 5 13 2 -7 2 -19 0 -25z
m1264 -12 c-6 -8 -9 -21 -5 -30 10 -26 -12 -19 -24 8 -12 28 -11 31 18 33 17
2 19 -1 11 -11z m879 4 c0 -5 -4 -10 -10 -10 -5 0 -10 5 -10 10 0 6 5 10 10
10 6 0 10 -4 10 -10z m124 -63 c-3 -10 5 -31 19 -50 16 -22 23 -41 20 -62 -6
-42 -13 -44 -13 -4 0 24 -9 44 -29 66 -16 18 -27 34 -24 37 9 8 -8 66 -18 60
-10 -6 -12 9 -2 20 11 11 53 -47 47 -67z m29 43 c15 -16 28 -39 30 -52 2 -13
2 -17 0 -10 -3 6 -9 12 -14 12 -5 0 -9 6 -9 14 0 7 -11 25 -25 40 -13 14 -21
26 -16 26 4 0 20 -13 34 -30z m-1090 -43 c2 -20 9 -42 15 -49 12 -15 12 -98 0
-98 -4 0 -8 15 -8 34 0 19 -4 37 -9 40 -4 3 -11 25 -15 48 -4 24 -10 54 -13
68 -6 23 -5 24 10 9 9 -9 18 -33 20 -52z m-6113 34 c0 -11 -4 -23 -10 -26 -6
-4 -10 5 -10 19 0 14 5 26 10 26 6 0 10 -9 10 -19z m6976 -17 c-9 -9 -20 -13
-24 -9 -4 4 -1 10 6 12 6 3 12 12 12 21 0 12 3 13 11 5 9 -9 7 -16 -5 -29z
m-546 -5 c0 -6 -4 -7 -10 -4 -5 3 -10 11 -10 16 0 6 5 7 10 4 6 -3 10 -11 10
-16z m-370 -8 c0 -11 3 -28 7 -38 6 -17 6 -17 -10 -1 -18 18 -23 58 -7 58 6 0
10 -9 10 -19z m192 -3 c-7 -7 -12 -8 -12 -2 0 14 12 26 19 19 2 -3 -1 -11 -7
-17z m788 12 c0 -5 -2 -10 -4 -10 -3 0 -8 5 -11 10 -3 6 -1 10 4 10 6 0 11 -4
11 -10z m230 0 c0 -5 -2 -10 -4 -10 -3 0 -8 5 -11 10 -3 6 -1 10 4 10 6 0 11
-4 11 -10z m-2283 -22 c-3 -8 -6 -5 -6 6 -1 11 2 17 5 13 3 -3 4 -12 1 -19z
m1471 -3 c-3 -3 -9 2 -12 12 -6 14 -5 15 5 6 7 -7 10 -15 7 -18z m-2353 -81
c0 -41 -2 -74 -6 -74 -8 0 -15 92 -11 133 6 53 17 16 17 -59z m3232 71 c8 -9
13 -19 10 -22 -6 -5 -37 21 -37 31 0 10 11 6 27 -9z m-7342 -23 c2 -12 0 -24
-6 -27 -5 -4 -9 8 -9 26 0 35 8 35 15 1z m2680 18 c3 -5 1 -10 -4 -10 -6 0
-11 5 -11 10 0 6 2 10 4 10 3 0 8 -4 11 -10z m901 -50 c1 -33 -3 -57 -7 -54
-11 6 -12 114 -1 114 4 0 7 -27 8 -60z m142 -22 c2 -63 0 -80 -9 -71 -16 16
-20 70 -8 116 5 20 11 37 12 37 1 0 3 -37 5 -82z m2502 30 c0 -5 -9 1 -20 12
-11 11 -20 26 -20 33 0 12 39 -32 40 -45z m797 20 c-3 -7 -5 -2 -5 12 0 14 2
19 5 13 2 -7 2 -19 0 -25z m203 1 c0 -18 -18 -9 -23 12 -4 16 -3 18 9 8 8 -6
14 -15 14 -20z m-5070 -60 c0 -53 -4 -78 -10 -74 -7 4 -9 29 -6 63 3 32 5 65
5 75 1 9 3 17 6 17 3 0 5 -36 5 -81z m670 4 c0 -53 -3 -74 -10 -67 -18 18 -13
144 6 144 2 0 4 -35 4 -77z m-978 36 c-6 -40 -21 -44 -19 -5 1 20 7 34 12 33
6 -2 8 -15 7 -28z m98 21 c0 -5 -4 -10 -10 -10 -5 0 -10 5 -10 10 0 6 5 10 10
10 6 0 10 -4 10 -10z m3317 -22 c-3 -8 -6 -5 -6 6 -1 11 2 17 5 13 3 -3 4 -12
1 -19z m802 -38 c0 -20 -3 -17 -14 15 -18 50 -18 53 0 29 8 -10 14 -30 14 -44z
m-2133 23 c2 -11 -3 -26 -11 -33 -13 -11 -15 -7 -15 25 0 39 21 46 26 8z m921
-20 c-3 -10 -5 -2 -5 17 0 19 2 27 5 18 2 -10 2 -26 0 -35z m1638 27 c3 -5 1
-10 -4 -10 -6 0 -11 5 -11 10 0 6 2 10 4 10 3 0 8 -4 11 -10z m793 -8 c6 -18
-15 -14 -22 4 -4 10 -1 14 6 12 6 -2 14 -10 16 -16z m-4551 -24 c-3 -8 -6 -5
-6 6 -1 11 2 17 5 13 3 -3 4 -12 1 -19z m249 -5 c-10 -10 -19 5 -10 18 6 11 8
11 12 0 2 -7 1 -15 -2 -18z m174 -19 c0 -27 -4 -43 -10 -39 -11 7 -13 45 -4
69 10 26 14 18 14 -30z m150 36 c0 -5 -5 -10 -11 -10 -5 0 -7 5 -4 10 3 6 8
10 11 10 2 0 4 -4 4 -10z m1015 0 c3 -5 1 -10 -4 -10 -6 0 -11 5 -11 10 0 6 2
10 4 10 3 0 8 -4 11 -10z m199 -38 c-4 -18 -10 -32 -15 -32 -11 0 -12 63 -2
74 13 13 23 -11 17 -42z m-2084 16 c0 -13 -5 -30 -10 -38 -7 -11 -10 -5 -10
23 0 20 5 37 10 37 6 0 10 -10 10 -22z m87 -40 c-2 -13 -4 -3 -4 22 0 25 2 35
4 23 2 -13 2 -33 0 -45z m383 20 c0 -49 -8 -47 -14 5 -3 20 -1 37 4 37 6 0 10
-19 10 -42z m150 7 c0 -19 -4 -35 -10 -35 -5 0 -10 16 -10 35 0 19 5 35 10 35
6 0 10 -16 10 -35z m1130 0 c0 -19 -4 -35 -10 -35 -11 0 -14 53 -3 63 11 12
13 8 13 -28z m2997 13 c-3 -8 -6 -5 -6 6 -1 11 2 17 5 13 3 -3 4 -12 1 -19z
m153 12 c0 -5 -2 -10 -4 -10 -3 0 -8 5 -11 10 -3 6 -1 10 4 10 6 0 11 -4 11
-10z m-5240 -15 c0 -8 -4 -15 -10 -15 -5 0 -10 7 -10 15 0 8 5 15 10 15 6 0
10 -7 10 -15z m144 -29 c-3 -9 -11 -16 -16 -16 -6 0 -7 7 -4 16 3 9 6 23 6 32
1 16 1 16 10 0 6 -9 7 -23 4 -32z m2356 14 c0 -16 -4 -30 -10 -30 -5 0 -10 14
-10 30 0 17 5 30 10 30 6 0 10 -13 10 -30z m57 -7 c-3 -3 -11 -2 -17 2 -8 5
-7 11 2 22 12 15 13 14 16 -1 2 -10 1 -20 -1 -23z m2310 15 c-3 -8 -6 -5 -6 6
-1 11 2 17 5 13 3 -3 4 -12 1 -19z m-3167 -4 c0 -8 -4 -12 -10 -9 -5 3 -10 10
-10 16 0 5 5 9 10 9 6 0 10 -7 10 -16z m450 1 c0 -8 -4 -15 -10 -15 -5 0 -10
7 -10 15 0 8 5 15 10 15 6 0 10 -7 10 -15z m-2310 -10 c0 -8 -4 -15 -10 -15
-5 0 -10 7 -10 15 0 8 5 15 10 15 6 0 10 -7 10 -15z m71 -12 c-8 -15 -10 -15
-11 -2 0 17 10 32 18 25 2 -3 -1 -13 -7 -23z m731 2 c3 -13 1 -22 -3 -19 -9 5
-13 44 -5 44 2 0 6 -11 8 -25z m908 -8 c0 -5 -4 -5 -10 -2 -5 3 -10 14 -10 23
0 15 2 15 10 2 5 -8 10 -19 10 -23z m1360 2 c0 -10 -4 -19 -9 -19 -5 0 -8 11
-7 24 1 28 16 24 16 -5z m1217 9 c-3 -8 -6 -5 -6 6 -1 11 2 17 5 13 3 -3 4
-12 1 -19z m-3927 2 c0 -5 -4 -10 -10 -10 -5 0 -10 5 -10 10 0 6 5 10 10 10 6
0 10 -4 10 -10z m1010 -6 c0 -8 -4 -12 -10 -9 -5 3 -10 10 -10 16 0 5 5 9 10
9 6 0 10 -7 10 -16z m3677 -6 c-3 -8 -6 -5 -6 6 -1 11 2 17 5 13 3 -3 4 -12 1
-19z m307 6 c6 -15 -22 -74 -35 -74 -4 0 -9 8 -12 19 -3 12 1 18 12 17 12 -1
15 6 13 27 -3 29 12 37 22 11z m-2407 -16 c-3 -8 -6 -5 -6 6 -1 11 2 17 5 13
3 -3 4 -12 1 -19z m1283 -18 c0 -5 -5 -10 -11 -10 -5 0 -7 5 -4 10 3 6 8 10
11 10 2 0 4 -4 4 -10z m-1750 -4 c0 -3 -4 -8 -10 -11 -5 -3 -10 -1 -10 4 0 6
5 11 10 11 6 0 10 -2 10 -4z m585 -16 c3 -5 1 -10 -4 -10 -6 0 -11 5 -11 10 0
6 2 10 4 10 3 0 8 -4 11 -10z m-1308 -22 c-3 -8 -6 -5 -6 6 -1 11 2 17 5 13 3
-3 4 -12 1 -19z m1630 -10 c-3 -8 -6 -5 -6 6 -1 11 2 17 5 13 3 -3 4 -12 1
-19z m-960 -10 c-3 -8 -6 -5 -6 6 -1 11 2 17 5 13 3 -3 4 -12 1 -19z m-4370
-10 c-3 -8 -6 -5 -6 6 -1 11 2 17 5 13 3 -3 4 -12 1 -19z m6227 -20 c4 -24 3
-38 -4 -38 -5 0 -10 19 -10 42 0 49 5 47 14 -4z m-373 -11 c-10 -9 -11 -8 -5
6 3 10 9 15 12 12 3 -3 0 -11 -7 -18z m-5854 -9 c-3 -8 -6 -5 -6 6 -1 11 2 17
5 13 3 -3 4 -12 1 -19z m6083 -32 c-7 -7 -10 1 -9 25 0 32 1 33 10 10 6 -16 6
-28 -1 -35z m-1873 -8 c-3 -8 -6 -5 -6 6 -1 11 2 17 5 13 3 -3 4 -12 1 -19z
m3063 11 c0 -6 10 -19 23 -30 22 -19 22 -19 -10 -2 -31 17 -45 43 -23 43 6 0
10 -5 10 -11z m-1037 -39 c-7 -28 -13 -25 -13 6 0 14 4 23 9 20 5 -3 7 -15 4
-26z m971 5 c13 -19 13 -23 2 -19 -11 4 -13 0 -9 -18 4 -18 3 -20 -6 -8 -5 8
-8 25 -5 37 4 15 0 23 -13 26 -14 4 -15 5 -2 6 9 0 24 -10 33 -24z m-174 0 c0
-8 -2 -15 -4 -15 -2 0 -6 7 -10 15 -3 8 -1 15 4 15 6 0 10 -7 10 -15z m-40
-23 c0 -15 -2 -15 -10 -2 -13 20 -13 33 0 25 6 -3 10 -14 10 -23z m-6990 -38
c0 -30 -4 -53 -8 -50 -11 6 -8 106 3 106 3 0 5 -25 5 -56z m6120 36 c0 -5 -2
-10 -4 -10 -3 0 -8 5 -11 10 -3 6 -1 10 4 10 6 0 11 -4 11 -10z m-24 -11 c3
-6 2 -15 -4 -21 -6 -6 -11 -2 -15 11 -5 22 7 29 19 10z m-829 -21 c-3 -8 -6
-5 -6 6 -1 11 2 17 5 13 3 -3 4 -12 1 -19z m-1380 -10 c-3 -8 -6 -5 -6 6 -1
11 2 17 5 13 3 -3 4 -12 1 -19z m2370 0 c-3 -8 -6 -5 -6 6 -1 11 2 17 5 13 3
-3 4 -12 1 -19z m-220 -50 c-2 -13 -4 -3 -4 22 0 25 2 35 4 23 2 -13 2 -33 0
-45z m86 47 c-3 -9 -8 -14 -10 -11 -3 3 -2 9 2 15 9 16 15 13 8 -4z m1181 0
c19 -15 19 -15 -1 -15 -11 0 -23 7 -27 15 -7 19 3 19 28 0z m-75 -44 c20 -15
43 -31 51 -35 8 -3 3 -4 -12 -1 -22 4 -27 1 -31 -17 -4 -20 -4 -19 -6 4 0 15
-13 38 -28 53 -38 34 -20 32 26 -4z m-1129 9 c0 -5 -2 -10 -4 -10 -3 0 -8 5
-11 10 -3 6 -1 10 4 10 6 0 11 -4 11 -10z m1210 -16 c0 -8 -4 -12 -10 -9 -5 3
-10 10 -10 16 0 5 5 9 10 9 6 0 10 -7 10 -16z m-1233 -16 c-3 -8 -6 -5 -6 6
-1 11 2 17 5 13 3 -3 4 -12 1 -19z m63 -13 c0 -13 -4 -26 -9 -30 -5 -3 -9 10
-8 29 2 38 17 39 17 1z m1038 -50 c0 -16 -2 -15 -8 5 -11 34 -11 60 0 35 5
-11 8 -29 8 -40z m-1911 23 c-3 -8 -6 -5 -6 6 -1 11 2 17 5 13 3 -3 4 -12 1
-19z m1033 6 c0 -8 -4 -12 -10 -9 -5 3 -10 10 -10 16 0 5 5 9 10 9 6 0 10 -7
10 -16z m-1263 -16 c-3 -8 -6 -5 -6 6 -1 11 2 17 5 13 3 -3 4 -12 1 -19z
m1953 -39 c0 -28 -2 -30 -16 -18 -10 8 -12 15 -5 17 6 2 11 10 11 18 0 8 2 14
5 14 3 0 5 -14 5 -31z m-893 -1 c-3 -8 -6 -5 -6 6 -1 11 2 17 5 13 3 -3 4 -12
1 -19z m-74 -8 c3 -11 1 -18 -4 -14 -5 3 -9 12 -9 20 0 20 7 17 13 -6z m-693
-17 c0 -22 -2 -25 -10 -13 -13 20 -13 40 0 40 6 0 10 -12 10 -27z m1896 12
c-3 -8 1 -21 9 -28 8 -8 11 -24 8 -36 -7 -27 -23 -27 -23 0 0 11 -4 18 -9 15
-5 -3 -12 1 -15 10 -3 8 -2 12 4 9 9 -5 15 15 11 38 0 4 4 7 10 7 6 0 9 -7 5
-15z m54 -6 c0 -5 -4 -9 -8 -9 -5 0 -9 7 -9 15 0 8 4 12 9 9 4 -3 8 -9 8 -15z
m-1233 -21 c-3 -8 -6 -5 -6 6 -1 11 2 17 5 13 3 -3 4 -12 1 -19z m-987 -8 c0
-5 -5 -10 -11 -10 -5 0 -7 5 -4 10 3 6 8 10 11 10 2 0 4 -4 4 -10z m1358 -15
c-3 -3 -9 2 -12 12 -6 14 -5 15 5 6 7 -7 10 -15 7 -18z m213 -8 c-8 -8 -11 -7
-11 4 0 20 13 34 18 19 3 -7 -1 -17 -7 -23z m-777 -13 c3 -8 2 -12 -4 -9 -6 3
-10 10 -10 16 0 14 7 11 14 -7z m623 -16 c-3 -7 -5 -2 -5 12 0 14 2 19 5 13 2
-7 2 -19 0 -25z m-200 -10 c-3 -8 -6 -5 -6 6 -1 11 2 17 5 13 3 -3 4 -12 1
-19z m148 13 c3 -5 1 -12 -5 -16 -5 -3 -10 1 -10 9 0 18 6 21 15 7z m780 -1
c3 -5 1 -10 -4 -10 -6 0 -11 5 -11 10 0 6 2 10 4 10 3 0 8 -4 11 -10z m175
-22 c0 -23 -3 -29 -9 -19 -8 12 -4 51 5 51 2 0 4 -15 4 -32z m-2243 -10 c-3
-8 -6 -5 -6 6 -1 11 2 17 5 13 3 -3 4 -12 1 -19z m120 0 c-3 -8 -6 -5 -6 6 -1
11 2 17 5 13 3 -3 4 -12 1 -19z m50 0 c-3 -8 -6 -5 -6 6 -1 11 2 17 5 13 3 -3
4 -12 1 -19z m120 -10 c-3 -7 -5 -2 -5 12 0 14 2 19 5 13 2 -7 2 -19 0 -25z
m66 -29 c-6 -6 -7 3 -4 23 4 28 6 29 9 9 2 -13 0 -27 -5 -32z m1748 39 c1 -7
1 -17 0 -21 -1 -5 3 -24 8 -43 6 -20 6 -36 0 -40 -5 -3 -9 -25 -9 -50 0 -25
-5 -44 -11 -44 -6 0 -8 7 -5 16 4 10 2 13 -6 8 -8 -5 -9 -2 -3 12 14 33 19
154 6 154 -7 0 -9 5 -6 10 9 14 25 12 26 -2z m-594 -20 c-3 -8 -6 -5 -6 6 -1
11 2 17 5 13 3 -3 4 -12 1 -19z m-1222 -10 c6 -4 2 -8 -7 -8 -10 0 -18 7 -18
17 0 9 3 12 8 7 4 -5 12 -12 17 -16z m1895 8 c0 -2 -7 -9 -15 -16 -13 -11 -14
-10 -9 4 5 14 24 23 24 12z m-1690 -16 c0 -5 -2 -10 -4 -10 -3 0 -8 5 -11 10
-3 6 -1 10 4 10 6 0 11 -4 11 -10z m-1483 -22 c-3 -8 -6 -5 -6 6 -1 11 2 17 5
13 3 -3 4 -12 1 -19z m1864 -5 c-12 -20 -14 -14 -5 12 4 9 9 14 11 11 3 -2 0
-13 -6 -23z m1059 -13 c0 -22 -2 -40 -4 -40 -2 0 -6 18 -8 40 -2 22 0 40 4 40
5 0 8 -18 8 -40z m-1763 -2 c-3 -7 -5 -2 -5 12 0 14 2 19 5 13 2 -7 2 -19 0
-25z m33 -52 c-7 -7 -10 -2 -10 15 0 13 -3 35 -5 49 -3 14 1 7 10 -14 10 -27
12 -43 5 -50z m60 65 c0 -29 -12 -81 -19 -81 -3 0 -4 22 -3 50 2 27 8 50 13
50 5 0 9 -8 9 -19z m1604 -45 c1 -30 -3 -52 -7 -49 -4 3 -7 29 -5 58 4 68 11
62 12 -9z m-1127 32 c-3 -8 -6 -5 -6 6 -1 11 2 17 5 13 3 -3 4 -12 1 -19z
m1294 -31 c-8 -8 -11 -7 -11 5 0 9 -3 25 -6 35 -5 13 -1 11 11 -5 13 -18 14
-27 6 -35z m109 43 c0 -5 -4 -10 -10 -10 -5 0 -10 5 -10 10 0 6 5 10 10 10 6
0 10 -4 10 -10z m-1813 -22 c-3 -8 -6 -5 -6 6 -1 11 2 17 5 13 3 -3 4 -12 1
-19z m945 -20 c-6 -6 -7 0 -4 19 5 21 7 23 10 9 2 -10 0 -22 -6 -28z m78 21
c0 -5 -4 -9 -8 -9 -5 0 -9 7 -9 15 0 8 4 12 9 9 4 -3 8 -9 8 -15z m87 -11 c-3
-7 -5 -2 -5 12 0 14 2 19 5 13 2 -7 2 -19 0 -25z m-1137 -19 c0 -11 -4 -17
-10 -14 -5 3 -10 15 -10 26 0 11 5 17 10 14 6 -3 10 -15 10 -26z m82 -11 c-10
-22 -11 -21 -11 12 -1 26 2 31 11 22 8 -8 8 -17 0 -34z m198 32 c0 -5 -5 -10
-11 -10 -5 0 -7 5 -4 10 3 6 8 10 11 10 2 0 4 -4 4 -10z m347 -12 c-3 -8 -6
-5 -6 6 -1 11 2 17 5 13 3 -3 4 -12 1 -19z m150 0 c-3 -8 -6 -5 -6 6 -1 11 2
17 5 13 3 -3 4 -12 1 -19z m-900 -30 c-3 -7 -5 -2 -5 12 0 14 2 19 5 13 2 -7
2 -19 0 -25z m1253 6 c0 -8 7 -26 16 -40 9 -13 14 -28 10 -31 -4 -4 -9 3 -13
15 -6 24 -19 29 -26 10 -2 -7 -4 6 -3 28 0 23 4 40 9 37 4 -2 7 -11 7 -19z
m-1100 7 c0 -6 -4 -13 -10 -16 -5 -3 -10 1 -10 9 0 9 5 16 10 16 6 0 10 -4 10
-9z m1870 -21 c0 -4 -8 -10 -18 -12 -15 -4 -18 -1 -14 19 3 19 7 21 18 12 8
-6 14 -15 14 -19z m-1273 -2 c-3 -8 -6 -5 -6 6 -1 11 2 17 5 13 3 -3 4 -12 1
-19z m998 2 c3 -5 1 -10 -4 -10 -6 0 -11 5 -11 10 0 6 2 10 4 10 3 0 8 -4 11
-10z m312 -22 c-3 -8 -6 -5 -6 6 -1 11 2 17 5 13 3 -3 4 -12 1 -19z m-5240
-10 c-3 -8 -6 -5 -6 6 -1 11 2 17 5 13 3 -3 4 -12 1 -19z m3222 -60 c1 -21 -3
-38 -8 -38 -4 0 -9 28 -9 63 0 45 2 55 8 37 4 -14 8 -42 9 -62z m781 66 c0 -8
-5 -12 -10 -9 -6 4 -8 11 -5 16 9 14 15 11 15 -7z m242 -6 c-7 -7 -12 -8 -12
-2 0 14 12 26 19 19 2 -3 -1 -11 -7 -17z m701 -10 c-10 -11 -19 -15 -21 -8 -5
15 18 41 30 34 5 -3 1 -15 -9 -26z m-1636 -20 c-3 -7 -5 -2 -5 12 0 14 2 19 5
13 2 -7 2 -19 0 -25z m73 17 c0 -8 -4 -15 -10 -15 -5 0 -7 7 -4 15 4 8 8 15
10 15 2 0 4 -7 4 -15z m1784 0 c-6 -16 -24 -21 -24 -7 0 11 11 22 21 22 5 0 6
-7 3 -15z m-1426 -20 c-3 -3 -9 2 -12 12 -6 14 -5 15 5 6 7 -7 10 -15 7 -18z
m1279 -7 c-3 -7 -5 -2 -5 12 0 14 2 19 5 13 2 -7 2 -19 0 -25z m-4970 0 c-3
-8 -6 -5 -6 6 -1 11 2 17 5 13 3 -3 4 -12 1 -19z m5048 -137 c-3 -2 -6 2 -8
10 -2 8 -9 30 -16 50 -6 19 -11 51 -10 70 1 24 6 12 19 -46 10 -44 17 -82 15
-84z m-1808 127 c-3 -8 -6 -5 -6 6 -1 11 2 17 5 13 3 -3 4 -12 1 -19z m160 0
c-3 -8 -6 -5 -6 6 -1 11 2 17 5 13 3 -3 4 -12 1 -19z m160 0 c-3 -8 -6 -5 -6
6 -1 11 2 17 5 13 3 -3 4 -12 1 -19z m393 12 c0 -5 -2 -10 -4 -10 -3 0 -8 5
-11 10 -3 6 -1 10 4 10 6 0 11 -4 11 -10z m295 -45 c-4 -25 -9 -44 -12 -41 -2
2 -1 25 2 51 4 25 9 44 12 41 2 -2 1 -25 -2 -51z m855 19 c0 -22 -22 -12 -31
14 -8 20 -6 21 11 12 11 -6 20 -18 20 -26z m-198 -16 c-8 -8 -12 -9 -12 -1 0
6 -3 20 -6 30 -7 17 -6 17 12 1 14 -14 16 -20 6 -30z m278 5 c-11 -17 -11 -17
-6 0 3 10 6 24 7 30 0 9 2 9 5 0 3 -7 0 -20 -6 -30z m-1332 -13 c-1 -16 -6
-30 -11 -30 -5 0 -6 7 -3 16 3 9 6 22 6 30 0 8 2 14 5 14 3 0 4 -13 3 -30z
m513 3 c-12 -20 -14 -14 -5 12 4 9 9 14 11 11 3 -2 0 -13 -6 -23z m446 -10
c-3 -10 -5 -4 -5 12 0 17 2 24 5 18 2 -7 2 -21 0 -30z m-1568 -17 c0 -6 -4
-20 -8 -31 -6 -15 -9 -8 -12 28 -4 40 -2 45 8 30 7 -9 13 -22 12 -27z m905 28
c3 -8 2 -12 -4 -9 -6 3 -10 10 -10 16 0 14 7 11 14 -7z m-1077 -16 c-3 -8 -6
-5 -6 6 -1 11 2 17 5 13 3 -3 4 -12 1 -19z m1930 -20 c-3 -8 -6 -5 -6 6 -1 11
2 17 5 13 3 -3 4 -12 1 -19z m-986 -15 c-12 -20 -14 -14 -5 12 4 9 9 14 11 11
3 -2 0 -13 -6 -23z m-704 -40 c1 -31 -1 -62 -5 -69 -4 -7 -8 15 -9 48 -2 51 1
78 10 78 1 0 3 -26 4 -57z m140 25 c-3 -7 -5 -2 -5 12 0 14 2 19 5 13 2 -7 2
-19 0 -25z m-380 -25 c-3 -10 -5 -2 -5 17 0 19 2 27 5 18 2 -10 2 -26 0 -35z
m970 25 c-3 -8 -6 -5 -6 6 -1 11 2 17 5 13 3 -3 4 -12 1 -19z m-180 -10 c-3
-8 -6 -5 -6 6 -1 11 2 17 5 13 3 -3 4 -12 1 -19z m981 -3 c-3 -3 -9 2 -12 12
-6 14 -5 15 5 6 7 -7 10 -15 7 -18z m-1571 -7 c-3 -8 -6 -5 -6 6 -1 11 2 17 5
13 3 -3 4 -12 1 -19z m353 12 c0 -5 -2 -10 -4 -10 -3 0 -8 5 -11 10 -3 6 -1
10 4 10 6 0 11 -4 11 -10z m320 -25 c0 -5 -5 -3 -10 5 -5 8 -10 20 -10 25 0 6
5 3 10 -5 5 -8 10 -19 10 -25z m1059 1 c-12 -24 -29 -36 -29 -18 0 10 33 52
38 48 1 -2 -3 -15 -9 -30z m-2052 2 c-3 -8 -6 -5 -6 6 -1 11 2 17 5 13 3 -3 4
-12 1 -19z m70 -10 c-3 -7 -5 -2 -5 12 0 14 2 19 5 13 2 -7 2 -19 0 -25z
m-197 12 c0 -5 -5 -10 -11 -10 -5 0 -7 5 -4 10 3 6 8 10 11 10 2 0 4 -4 4 -10z
m407 -42 c-10 -18 -15 -25 -12 -15 3 10 5 30 5 45 0 20 3 23 12 14 9 -9 8 -19
-5 -44z m230 30 c-3 -8 -6 -5 -6 6 -1 11 2 17 5 13 3 -3 4 -12 1 -19z m550
-20 c-3 -8 -6 -5 -6 6 -1 11 2 17 5 13 3 -3 4 -12 1 -19z m-940 -20 c-3 -7 -5
-2 -5 12 0 14 2 19 5 13 2 -7 2 -19 0 -25z m780 0 c-3 -7 -5 -2 -5 12 0 14 2
19 5 13 2 -7 2 -19 0 -25z m1073 12 c0 -5 -2 -10 -4 -10 -3 0 -8 5 -11 10 -3
6 -1 10 4 10 6 0 11 -4 11 -10z m176 -22 c-3 -13 -5 -25 -5 -28 -1 -3 -5 1
-10 9 -6 9 -5 19 2 27 16 18 17 17 13 -8z m-4899 -35 c-3 -10 -5 -2 -5 17 0
19 2 27 5 18 2 -10 2 -26 0 -35z m4812 40 c0 -5 -4 -17 -9 -28 -8 -18 -9 -17
-9 8 -1 15 4 27 9 27 6 0 10 -3 9 -7z m-782 -25 c-3 -8 -6 -5 -6 6 -1 11 2 17
5 13 3 -3 4 -12 1 -19z m813 6 c0 -8 -4 -12 -10 -9 -5 3 -10 10 -10 16 0 5 5
9 10 9 6 0 10 -7 10 -16z m-2067 -29 c-7 -21 -13 -19 -13 6 0 11 4 18 10 14 5
-3 7 -12 3 -20z m2062 -5 c3 -5 8 -36 10 -67 3 -32 7 -75 10 -96 3 -24 2 -36
-4 -33 -5 4 -13 31 -17 62 -4 39 -9 52 -16 43 -9 -14 -8 -3 7 50 3 11 1 22 -5
26 -5 3 -10 10 -10 16 0 12 17 12 25 -1z m-48 -22 c-3 -8 -6 -5 -6 6 -1 11 2
17 5 13 3 -3 4 -12 1 -19z m-1946 -29 c-6 -16 -10 -18 -10 -7 -1 22 12 55 16
42 2 -6 -1 -22 -6 -35z m867 -4 c-3 -3 -9 2 -12 12 -6 14 -5 15 5 6 7 -7 10
-15 7 -18z m189 3 c-3 -8 -6 -5 -6 6 -1 11 2 17 5 13 3 -3 4 -12 1 -19z m1110
0 c-3 -8 -6 -5 -6 6 -1 11 2 17 5 13 3 -3 4 -12 1 -19z m-107 2 c0 -5 -4 -10
-10 -10 -5 0 -10 5 -10 10 0 6 5 10 10 10 6 0 10 -4 10 -10z m-100 -43 c0 -5
-4 -5 -10 -2 -5 3 -10 14 -10 23 0 15 2 15 10 2 5 -8 10 -19 10 -23z m-39 -24
c-9 -15 -10 -12 -10 17 0 29 1 32 10 18 7 -12 7 -24 0 -35z m36 -35 c-3 -7 -5
-2 -5 12 0 14 2 19 5 13 2 -7 2 -19 0 -25z m-990 -20 c-3 -7 -5 -2 -5 12 0 14
2 19 5 13 2 -7 2 -19 0 -25z m830 0 c-3 -7 -5 -2 -5 12 0 14 2 19 5 13 2 -7 2
-19 0 -25z m146 2 c3 -11 1 -20 -4 -20 -5 0 -9 9 -9 20 0 11 2 20 4 20 2 0 6
-9 9 -20z m-903 -14 c0 -3 -4 -8 -10 -11 -5 -3 -10 -1 -10 4 0 6 5 11 10 11 6
0 10 -2 10 -4z m948 -27 c-3 -8 -7 -3 -11 10 -4 17 -3 21 5 13 5 -5 8 -16 6
-23z m-18 -90 c0 -6 -4 -7 -10 -4 -5 3 -10 11 -10 16 0 6 5 7 10 4 6 -3 10
-11 10 -16z m-3657 -78 c-1 -43 -6 -88 -11 -100 -5 -14 -7 15 -6 76 3 112 1
103 12 103 5 0 7 -35 5 -79z m3094 47 c-3 -8 -6 -5 -6 6 -1 11 2 17 5 13 3 -3
4 -12 1 -19z m-260 -20 c-3 -8 -6 -5 -6 6 -1 11 2 17 5 13 3 -3 4 -12 1 -19z
m173 -14 c0 -14 -4 -23 -9 -20 -5 3 -8 17 -8 31 0 13 3 22 8 19 5 -3 9 -16 9
-30z m-3593 -6 c-3 -7 -5 -2 -5 12 0 14 2 19 5 13 2 -7 2 -19 0 -25z m394 -31
c-8 -8 -11 -5 -11 9 0 27 14 41 18 19 2 -9 -1 -22 -7 -28z m264 -97 c-2 -78
-5 -144 -9 -147 -3 -4 -6 60 -6 140 0 81 4 147 8 147 5 0 8 -63 7 -140z m-577
70 c0 -33 -4 -60 -9 -60 -5 0 -9 27 -9 60 0 33 4 60 9 60 4 0 8 -27 9 -60z
m3373 17 c-13 -13 -15 1 -4 30 7 17 8 17 11 -1 2 -10 -1 -23 -7 -29z m-1724
11 c-3 -8 -6 -5 -6 6 -1 11 2 17 5 13 3 -3 4 -12 1 -19z m1913 -43 c0 -5 -5
-3 -10 5 -5 8 -10 20 -10 25 0 6 5 3 10 -5 5 -8 10 -19 10 -25z m652 10 c3
-14 1 -25 -3 -25 -5 0 -9 11 -9 25 0 14 2 25 4 25 2 0 6 -11 8 -25z m32 -35
c1 -18 -4 -30 -11 -30 -14 0 -16 13 -7 48 8 29 17 21 18 -18z m-3919 -7 c3
-10 1 -19 -4 -21 -6 -2 -8 -14 -5 -27 3 -12 1 -26 -5 -30 -8 -4 -11 10 -10 44
2 52 11 65 24 34z m72 -20 c-3 -10 -5 -4 -5 12 0 17 2 24 5 18 2 -7 2 -21 0
-30z m2398 17 c3 -6 -1 -7 -9 -4 -18 7 -21 14 -7 14 6 0 13 -4 16 -10z m1532
-12 c-3 -8 -6 -5 -6 6 -1 11 2 17 5 13 3 -3 4 -12 1 -19z m-3820 -25 c-3 -10
-5 -4 -5 12 0 17 2 24 5 18 2 -7 2 -21 0 -30z m2330 5 c-3 -8 -6 -5 -6 6 -1
11 2 17 5 13 3 -3 4 -12 1 -19z m-2837 2 c0 -5 -4 -10 -10 -10 -5 0 -10 5 -10
10 0 6 5 10 10 10 6 0 10 -4 10 -10z m2685 1 c3 -5 1 -12 -5 -16 -5 -3 -10 1
-10 9 0 18 6 21 15 7z m82 -28 c-3 -10 -5 -4 -5 12 0 17 2 24 5 18 2 -7 2 -21
0 -30z m1445 -18 c-8 -15 -10 -13 -14 14 -4 28 -3 30 10 18 10 -11 11 -20 4
-32z m-4295 -7 c-3 -8 -6 -5 -6 6 -1 11 2 17 5 13 3 -3 4 -12 1 -19z m480 0
c-3 -8 -6 -5 -6 6 -1 11 2 17 5 13 3 -3 4 -12 1 -19z m100 -10 c-3 -7 -5 -2
-5 12 0 14 2 19 5 13 2 -7 2 -19 0 -25z m2880 -40 c-3 -7 -5 -2 -5 12 0 14 2
19 5 13 2 -7 2 -19 0 -25z m828 22 c3 -5 1 -10 -4 -10 -6 0 -11 5 -11 10 0 6
2 10 4 10 3 0 8 -4 11 -10z m67 -52 c-8 -8 -9 -4 -5 13 4 13 8 18 11 10 2 -7
-1 -18 -6 -23z m23 -67 c-3 -12 -10 -21 -15 -21 -4 0 -3 11 3 24 14 29 22 27
12 -3z m69 -37 c3 -8 2 -12 -4 -9 -6 3 -10 10 -10 16 0 14 7 11 14 -7z m-114
-24 c0 -5 -4 -10 -10 -10 -5 0 -10 5 -10 10 0 6 5 10 10 10 6 0 10 -4 10 -10z
m-73 -32 c-3 -8 -6 -5 -6 6 -1 11 2 17 5 13 3 -3 4 -12 1 -19z m-200 -20 c-3
-8 -6 -5 -6 6 -1 11 2 17 5 13 3 -3 4 -12 1 -19z m257 7 c-4 -8 -10 -15 -15
-15 -5 0 -9 7 -9 15 0 8 7 15 15 15 9 0 12 -6 9 -15z m-4076 -50 c1 -25 -3
-45 -8 -45 -11 0 -13 33 -4 68 9 32 11 28 12 -23z m4159 13 c-3 -7 -5 -2 -5
12 0 14 2 19 5 13 2 -7 2 -19 0 -25z m-51 -4 c-3 -9 -6 -21 -6 -27 0 -8 -3 -8
-10 -1 -12 12 -3 44 12 44 6 0 7 -7 4 -16z m-56 -5 c0 -5 -4 -8 -9 -4 -5 3
-12 -3 -14 -12 -4 -14 -5 -13 -6 5 -1 13 5 22 14 22 8 0 15 -5 15 -11z m-3865
-56 c-7 -17 -8 -16 -17 4 -6 12 -7 30 -3 40 7 17 8 16 17 -4 6 -12 7 -30 3
-40z m3642 15 c-3 -7 -5 -2 -5 12 0 14 2 19 5 13 2 -7 2 -19 0 -25z m318 13
c-3 -6 -11 -11 -17 -11 -6 0 -6 6 2 15 14 17 26 13 15 -4z m-4449 -17 c-4 -9
-9 -15 -11 -12 -3 3 -3 13 1 22 4 9 9 15 11 12 3 -3 3 -13 -1 -22z m4402 1 c7
-6 -11 -54 -19 -50 -4 3 -6 12 -2 21 3 8 -3 22 -13 30 -18 14 -18 15 6 8 14
-3 26 -8 28 -9z m-1508 -30 c0 -5 -5 -3 -10 5 -5 8 -10 20 -10 25 0 6 5 3 10
-5 5 -8 10 -19 10 -25z m-2500 5 c0 -5 -2 -10 -4 -10 -3 0 -8 5 -11 10 -3 6
-1 10 4 10 6 0 11 -4 11 -10z m4054 -14 c-4 -10 -34 -19 -34 -10 0 16 15 32
25 28 8 -3 12 -11 9 -18z m-115 -20 c-3 -3 -11 5 -18 17 -13 21 -12 21 5 5 10
-10 16 -20 13 -22z m151 20 c0 -3 -4 -8 -10 -11 -5 -3 -10 -1 -10 4 0 6 5 11
10 11 6 0 10 -2 10 -4z m-213 -28 c-3 -8 -6 -5 -6 6 -1 11 2 17 5 13 3 -3 4
-12 1 -19z m20 -15 c-3 -10 -5 -4 -5 12 0 17 2 24 5 18 2 -7 2 -21 0 -30z
m168 -2 c-3 -11 0 -21 9 -24 10 -4 16 2 19 16 3 13 3 11 2 -6 -1 -15 2 -30 7
-33 4 -3 8 -9 8 -15 0 -5 -8 -1 -19 10 -10 10 -24 20 -31 23 -12 4 -6 48 6 48
3 0 3 -8 -1 -19z m-328 -28 c-3 -10 -5 -4 -5 12 0 17 2 24 5 18 2 -7 2 -21 0
-30z m303 23 c0 -3 -4 -8 -10 -11 -5 -3 -10 -1 -10 4 0 6 5 11 10 11 6 0 10
-2 10 -4z m-60 -20 c0 -8 -4 -18 -10 -21 -5 -3 -10 -4 -10 -1 0 2 -3 11 -6 20
-4 11 -1 16 10 16 9 0 16 -6 16 -14z m-93 -18 c-3 -8 -6 -5 -6 6 -1 11 2 17 5
13 3 -3 4 -12 1 -19z m72 -35 c2 -1 -7 -18 -19 -37 -21 -35 -40 -47 -40 -25 0
5 5 7 10 4 9 -5 12 2 12 25 1 3 -2 17 -6 33 -6 26 -5 27 16 15 13 -7 25 -14
27 -15z m-4132 -5 c-3 -8 -6 -5 -6 6 -1 11 2 17 5 13 3 -3 4 -12 1 -19z m1657
6 c10 -25 -1 -29 -14 -5 -6 12 -7 21 -1 21 5 0 12 -7 15 -16z m-1602 -16 c-7
-7 -12 -8 -12 -2 0 14 12 26 19 19 2 -3 -1 -11 -7 -17z m285 -15 c-3 -10 -5
-4 -5 12 0 17 2 24 5 18 2 -7 2 -21 0 -30z m3883 27 c0 -5 -2 -10 -4 -10 -3 0
-8 5 -11 10 -3 6 -1 10 4 10 6 0 11 -4 11 -10z m-2623 -32 c-3 -7 -5 -2 -5 12
0 14 2 19 5 13 2 -7 2 -19 0 -25z m1730 0 c-3 -7 -5 -2 -5 12 0 14 2 19 5 13
2 -7 2 -19 0 -25z m838 -8 c3 -5 1 -10 -4 -10 -6 0 -11 5 -11 10 0 6 2 10 4
10 3 0 8 -4 11 -10z m36 -31 c-9 -23 -10 -22 -10 11 -1 23 2 31 9 24 7 -7 7
-19 1 -35z m-128 -39 c-3 -11 -7 -20 -9 -20 -2 0 -4 9 -4 20 0 11 4 20 9 20 5
0 7 -9 4 -20z m134 -12 c-3 -8 -6 -5 -6 6 -1 11 2 17 5 13 3 -3 4 -12 1 -19z
m-57 -6 c0 -10 6 -24 13 -31 10 -10 9 -11 -5 -6 -10 4 -18 11 -18 15 0 5 -3
15 -6 24 -3 9 -1 16 5 16 6 0 11 -8 11 -18z m-50 -59 c0 -20 -3 -33 -6 -30
-11 10 -13 78 -3 71 5 -3 9 -21 9 -41z m-1543 -5 c-3 -7 -5 -2 -5 12 0 14 2
19 5 13 2 -7 2 -19 0 -25z m1652 -47 c0 -14 -1 -14 -6 -1 -3 8 -10 24 -15 35
-9 20 -9 20 6 1 9 -11 16 -27 15 -35z m-177 14 c3 -14 1 -25 -3 -25 -5 0 -9
11 -9 25 0 14 2 25 4 25 2 0 6 -11 8 -25z m132 -38 c2 -9 0 -15 -5 -11 -5 3
-9 11 -9 19 0 7 -7 15 -15 19 -8 3 -15 13 -15 23 0 15 4 14 20 -7 10 -14 21
-33 24 -43z m133 31 c-3 -7 -5 -2 -5 12 0 14 2 19 5 13 2 -7 2 -19 0 -25z
m-190 -40 c-3 -8 -6 -5 -6 6 -1 11 2 17 5 13 3 -3 4 -12 1 -19z m121 -120 c-9
-5 -17 1 -24 17 -5 14 -13 22 -17 18 -5 -4 -10 3 -14 15 -5 22 -23 31 -23 11
0 -5 -5 -7 -11 -3 -8 4 -8 9 -1 13 7 4 8 12 2 21 -26 40 -4 28 45 -25 39 -42
52 -61 43 -67z m56 47 c3 -8 1 -15 -4 -15 -6 0 -10 7 -10 15 0 8 2 15 4 15 2
0 6 -7 10 -15z m6 -35 c0 -5 -2 -10 -4 -10 -3 0 -8 5 -11 10 -3 6 -1 10 4 10
6 0 11 -4 11 -10z m-21 -60 c0 -9 -4 -8 -9 5 -5 11 -9 27 -9 35 0 9 4 8 9 -5
5 -11 9 -27 9 -35z m35 -25 c5 -22 4 -26 -4 -15 -5 8 -10 24 -10 34 0 26 6 18
14 -19z m-114 10 c19 -23 8 -26 -19 -4 -16 13 -18 19 -8 19 8 0 20 -7 27 -15z
m-698 -27 c-8 -8 -9 -4 -5 13 4 13 8 18 11 10 2 -7 -1 -18 -6 -23z m778 1 c0
-6 -7 -6 -20 1 -11 6 -20 15 -20 21 0 6 7 6 20 -1 11 -6 20 -15 20 -21z
m-2703 -1 c-3 -8 -6 -5 -6 6 -1 11 2 17 5 13 3 -3 4 -12 1 -19z m2665 -30 c-7
-7 -12 -8 -12 -2 0 14 12 26 19 19 2 -3 -1 -11 -7 -17z m-55 -13 c6 -14 9 -25
5 -25 -9 0 -42 32 -42 42 0 18 26 6 37 -17z m164 -72 c1 -27 2 -81 3 -121 1
-40 -2 -76 -6 -78 -4 -3 -8 1 -8 10 0 8 -6 17 -12 19 -9 4 -10 8 -2 14 6 4 9
26 8 48 -2 22 -4 49 -4 60 -1 11 -6 23 -13 27 -9 6 -9 10 2 17 8 5 11 16 6 30
-5 15 -2 21 9 21 12 0 16 -11 17 -47z m-101 5 c0 -16 -3 -19 -11 -11 -6 6 -8
16 -5 22 11 17 16 13 16 -11z m-60 -4 c0 -8 -4 -12 -10 -9 -5 3 -10 10 -10 16
0 5 5 9 10 9 6 0 10 -7 10 -16z m90 -5 c0 -6 -4 -7 -10 -4 -5 3 -10 11 -10 16
0 6 5 7 10 4 6 -3 10 -11 10 -16z m-143 -36 c-3 -10 -5 -4 -5 12 0 17 2 24 5
18 2 -7 2 -21 0 -30z m-1780 5 c-3 -8 -6 -5 -6 6 -1 11 2 17 5 13 3 -3 4 -12
1 -19z m1901 -7 c3 -8 -1 -12 -9 -9 -7 2 -15 10 -17 17 -3 8 1 12 9 9 7 -2 15
-10 17 -17z m-171 -13 c-3 -8 -6 -5 -6 6 -1 11 2 17 5 13 3 -3 4 -12 1 -19z
m98 -7 c10 -17 -12 -21 -25 -6 -10 12 -10 15 3 15 9 0 18 -4 22 -9z m47 -56
c3 -56 -14 -74 -20 -22 -2 18 -8 25 -15 21 -8 -5 -8 -3 1 7 6 7 12 21 12 31 0
10 4 18 9 18 5 0 11 -25 13 -55z m38 13 c-1 -40 -2 -42 -16 -23 -9 12 -11 21
-4 23 5 2 10 12 10 23 0 10 2 19 5 19 3 0 5 -19 5 -42z m-893 10 c-3 -8 -6 -5
-6 6 -1 11 2 17 5 13 3 -3 4 -12 1 -19z m703 2 c0 -5 -2 -10 -4 -10 -3 0 -8 5
-11 10 -3 6 -1 10 4 10 6 0 11 -4 11 -10z m48 -31 c-3 -8 -7 -3 -11 10 -4 17
-3 21 5 13 5 -5 8 -16 6 -23z m-1581 -21 c-3 -8 -6 -5 -6 6 -1 11 2 17 5 13 3
-3 4 -12 1 -19z m1533 -4 c0 -8 -4 -12 -10 -9 -5 3 -10 13 -10 21 0 8 5 12 10
9 6 -3 10 -13 10 -21z m75 -16 c14 -12 25 -26 25 -32 0 -6 -6 -4 -13 5 -7 8
-20 18 -29 22 -10 3 -18 11 -18 17 0 15 7 13 35 -12z m117 -23 c2 -11 9 -21
16 -21 6 -1 19 -2 27 -3 8 0 15 -8 15 -16 0 -13 -3 -13 -20 -3 -17 11 -22 10
-29 -1 -7 -10 -12 -4 -20 25 -6 21 -11 43 -11 49 0 16 18 -8 22 -30z m-775
-12 c-3 -10 -5 -4 -5 12 0 17 2 24 5 18 2 -7 2 -21 0 -30z m819 10 c-7 -7 -26
7 -26 19 0 6 6 6 15 -2 9 -7 13 -15 11 -17z m-1769 -5 c-3 -8 -6 -5 -6 6 -1
11 2 17 5 13 3 -3 4 -12 1 -19z m1543 2 c0 -5 -2 -10 -4 -10 -3 0 -8 5 -11 10
-3 6 -1 10 4 10 6 0 11 -4 11 -10z m149 -27 c0 -25 -1 -26 -9 -8 -12 27 -12
35 0 35 6 0 10 -12 9 -27z m21 -62 c0 -11 -3 -11 -15 -1 -8 7 -15 9 -15 6 0
-4 -13 2 -30 14 -16 12 -30 25 -30 30 0 15 89 -34 90 -49z m98 14 c0 -25 -4
-45 -9 -45 -5 0 -9 20 -9 45 0 25 4 45 9 45 5 0 9 -20 9 -45z m-861 13 c-3 -8
-6 -5 -6 6 -1 11 2 17 5 13 3 -3 4 -12 1 -19z m573 -43 c0 -14 -2 -25 -4 -25
-2 0 -6 11 -8 25 -3 14 -1 25 3 25 5 0 9 -11 9 -25z m100 5 c0 -5 -2 -10 -4
-10 -3 0 -8 5 -11 10 -3 6 -1 10 4 10 6 0 11 -4 11 -10z m40 -16 c0 -8 -4 -12
-10 -9 -5 3 -10 10 -10 16 0 5 5 9 10 9 6 0 10 -7 10 -16z m59 -39 c0 -11 -3
-14 -6 -7 -2 6 -8 10 -12 8 -13 -9 -32 11 -25 27 8 23 44 0 43 -28z m-63 -20
c-2 -7 0 -17 6 -23 7 -7 5 -10 -8 -9 -11 1 -20 -7 -25 -23 -6 -20 -7 -17 -8
17 -1 36 2 42 17 37 15 -5 15 -4 -1 9 -11 9 -25 13 -33 10 -8 -3 -14 -1 -14 5
0 18 24 20 48 4 13 -8 21 -20 18 -27z m114 1 c0 -18 -2 -17 -15 8 -19 36 -19
42 0 26 8 -7 15 -22 15 -34z m-287 27 c3 -5 -1 -14 -9 -20 -8 -8 -15 -9 -19
-3 -3 6 -1 10 5 10 6 0 8 5 5 10 -3 6 -2 10 4 10 5 0 12 -3 14 -7z m317 -3 c0
-5 -4 -10 -10 -10 -5 0 -10 5 -10 10 0 6 5 10 10 10 6 0 10 -4 10 -10z m-253
-42 c-3 -7 -5 -2 -5 12 0 14 2 19 5 13 2 -7 2 -19 0 -25z m206 -10 c2 -7 7
-15 12 -18 11 -5 35 -67 35 -90 -1 -12 -3 -12 -14 3 -14 19 -36 23 -36 7 0 -5
7 -10 15 -10 8 0 15 -5 15 -11 0 -6 -7 -9 -15 -5 -18 7 -21 -24 -3 -42 6 -6 8
-15 3 -19 -4 -5 -10 -2 -12 5 -3 6 -9 12 -15 12 -14 0 -38 26 -31 34 3 3 12 1
20 -5 8 -7 13 -8 13 -1 0 11 -30 38 -39 34 -3 -2 -7 5 -9 15 -3 15 -1 16 7 3
7 -10 11 -11 11 -3 0 7 7 10 18 6 14 -5 13 -3 -3 10 -20 16 -20 16 2 17 l23 0
-21 37 c-15 27 -17 33 -5 24 14 -11 16 -11 16 4 0 20 10 15 13 -7z m55 -22 c2
-10 0 -22 -6 -28 -6 -6 -11 1 -14 22 -5 32 14 38 20 6z m-278 -14 c0 -12 -3
-12 -15 -2 -8 7 -15 13 -15 15 0 1 7 2 15 2 8 0 15 -7 15 -15z m130 -9 c0 -14
-3 -23 -7 -19 -10 10 -11 46 -1 46 4 0 8 -12 8 -27z m27 -15 c-3 -8 -6 -5 -6
6 -1 11 2 17 5 13 3 -3 4 -12 1 -19z m28 -118 c4 -6 11 -8 16 -5 5 4 9 1 9 -4
0 -6 -4 -11 -9 -11 -17 0 -41 12 -41 21 0 12 17 11 25 -1z m-175 -210 c0 -5
-4 -10 -10 -10 -5 0 -10 5 -10 10 0 6 5 10 10 10 6 0 10 -4 10 -10z m-7190
-39 c0 -6 -4 -13 -10 -16 -5 -3 -10 1 -10 9 0 9 5 16 10 16 6 0 10 -4 10 -9z
m-20 -61 c0 -5 -5 -10 -11 -10 -5 0 -7 5 -4 10 3 6 8 10 11 10 2 0 4 -4 4 -10z"/>
<path d="M1840 9394 c0 -17 6 -37 14 -43 11 -9 13 -6 11 13 -2 13 -8 33 -14
43 -9 16 -10 14 -11 -13z"/>
<path d="M1836 9312 c-6 -10 19 -50 27 -42 2 3 -2 16 -9 28 -6 13 -14 20 -18
14z"/>
<path d="M1882 8640 c0 -19 2 -27 5 -17 2 9 2 25 0 35 -3 9 -5 1 -5 -18z"/>
<path d="M1861 8493 c7 -10 15 -20 16 -22 2 -2 3 3 3 11 0 9 -7 19 -16 22 -15
6 -15 4 -3 -11z"/>
<path d="M1886 8435 c-3 -8 -1 -15 3 -15 5 0 11 7 15 15 3 8 1 15 -3 15 -5 0
-11 -7 -15 -15z"/>
<path d="M1856 8403 c5 -5 12 -12 16 -18 4 -6 8 -2 8 8 0 9 -7 17 -17 17 -9 0
-12 -3 -7 -7z"/>
<path d="M1900 8170 c0 -5 5 -10 11 -10 5 0 7 5 4 10 -3 6 -8 10 -11 10 -2 0
-4 -4 -4 -10z"/>
<path d="M1890 8022 c0 -5 7 -13 16 -16 10 -4 14 -1 12 6 -5 15 -28 23 -28 10z"/>
<path d="M1931 7594 c0 -11 3 -14 6 -6 3 7 2 16 -1 19 -3 4 -6 -2 -5 -13z"/>
<path d="M9296 6854 c-4 -9 -4 -19 -1 -22 2 -3 7 3 11 12 4 9 4 19 1 22 -2 3
-7 -3 -11 -12z"/>
<path d="M9445 9020 c-3 -5 -1 -18 4 -27 9 -16 10 -14 11 10 0 28 -5 34 -15
17z"/>
<path d="M9445 8811 c-3 -5 -1 -12 5 -16 5 -3 10 1 10 9 0 18 -6 21 -15 7z"/>
<path d="M9451 8704 c0 -11 3 -14 6 -6 3 7 2 16 -1 19 -3 4 -6 -2 -5 -13z"/>
<path d="M9452 8640 c0 -19 2 -27 5 -17 2 9 2 25 0 35 -3 9 -5 1 -5 -18z"/>
<path d="M9452 7935 c0 -16 2 -22 5 -12 2 9 2 23 0 30 -3 6 -5 -1 -5 -18z"/>
<path d="M9454 7350 c0 -69 1 -97 3 -62 2 34 2 90 0 125 -2 34 -3 6 -3 -63z"/>
<path d="M9451 7144 c0 -11 3 -14 6 -6 3 7 2 16 -1 19 -3 4 -6 -2 -5 -13z"/>
<path d="M9449 6793 c-2 -217 2 -497 7 -502 2 -2 4 140 4 317 0 177 -2 322 -5
322 -3 0 -5 -62 -6 -137z"/>
<path d="M9380 6759 c0 -5 5 -7 10 -4 6 3 10 8 10 11 0 2 -4 4 -10 4 -5 0 -10
-5 -10 -11z"/>
<path d="M9302 6708 c-7 -7 -12 -21 -11 -32 0 -15 2 -16 6 -6 3 8 15 23 27 32
16 13 17 18 6 18 -9 0 -21 -5 -28 -12z"/>
<path d="M9367 6653 c-12 -11 -8 -23 8 -23 8 0 15 7 15 15 0 16 -12 20 -23 8z"/>
<path d="M9300 6610 c0 -11 -4 -20 -10 -20 -5 0 -7 6 -4 13 3 8 -2 14 -11 14
-8 0 -13 -5 -10 -11 3 -6 8 -19 11 -28 8 -24 20 -23 27 3 3 12 10 18 15 15 6
-3 8 2 5 14 -7 26 -23 26 -23 0z"/>
<path d="M9380 6609 c0 -5 6 -9 13 -9 6 0 4 -5 -5 -11 -10 -5 -18 -18 -18 -27
1 -12 7 -9 23 13 27 36 27 37 5 41 -10 1 -18 -2 -18 -7z"/>
<path d="M9320 6570 c0 -7 -12 -23 -27 -36 -15 -13 -24 -26 -21 -29 4 -4 16 3
28 15 12 12 24 19 28 16 3 -4 0 -12 -6 -18 -7 -7 -12 -19 -12 -27 1 -9 8 -3
17 14 23 40 24 52 7 66 -11 9 -14 9 -14 -1z"/>
<path d="M9451 6204 c0 -11 3 -14 6 -6 3 7 2 16 -1 19 -3 4 -6 -2 -5 -13z"/>
<path d="M9432 4500 c0 -14 2 -19 5 -12 2 6 2 18 0 25 -3 6 -5 1 -5 -13z"/>
<path d="M9516 2429 c0 -27 3 -52 7 -56 4 -3 7 17 7 45 0 28 -3 53 -8 55 -4 3
-7 -17 -6 -44z"/>
<path d="M2150 1010 c0 -5 5 -10 11 -10 5 0 7 5 4 10 -3 6 -8 10 -11 10 -2 0
-4 -4 -4 -10z"/>
</g>
</svg>
